<svg class="svg-product" version="1.1" xmlns="http://www.w3.org/2000/svg" viewBox="0 0 244 243.1">
	<g class="svg-illustration-shadow">
		<path class="compute-cls-21" d="M122,117.5a9.07,9.07,0,0,0-4.3,1c-1.1.6-102.3,58.7-103.4,59.3a3,3,0,0,0-1.8,2.5h0a3.13,3.13,0,0,0,1.8,2.5c1.1.6,102.3,58.7,103.4,59.3a9.33,9.33,0,0,0,8.6,0c1.1-.6,102.3-58.7,103.4-59.3a3,3,0,0,0,1.8-2.5h0a3.13,3.13,0,0,0-1.8-2.5c-1.1-.6-102.3-58.7-103.4-59.3a10.43,10.43,0,0,0-4.3-1"></path>
	</g>
	<g class="svg-illustration-bottom">
		<path class="compute-st1" d="M231,107.9C231,107.9,231,108.1,231,107.9c0,0.1,0,0.1,0,0.2v29c-0.1,1.1-0.8,2-1.8,2.5c-1.1,0.6-102.3,58.7-103.4,59.3c-2.7,1.4-5.9,1.4-8.6,0c-1.1-0.6-102.3-58.7-103.4-59.3c-1-0.4-1.7-1.4-1.8-2.5V108l0,0l0,0v-0.5h0.1c0.3-0.9,0.9-1.6,1.7-2c1.1-0.6,102.3-59.6,103.4-60.2c2.7-1.4,5.9-1.4,8.6,0c1.1,0.6,102.3,59.6,103.4,60.2
												c0.8,0.4,1.4,1.1,1.7,2h0.1V107.9z"></path>
		<path class="compute-st2" d="M231.1,107.9C231.1,107.9,231.1,108.1,231.1,107.9c0,0.1,0,0.1,0,0.2v29c-0.1,1.1-0.8,2-1.8,2.5c-1.1,0.6-102.3,58.7-103.4,59.3c-2.7,1.4-5.9,1.4-8.6,0c-1.1-0.6-102.3-58.7-103.4-59.3c-1-0.4-1.7-1.4-1.8-2.5V108l0,0l0,0v-0.5h0.1c0.3-0.9,0.9-1.6,1.7-2c1.1-0.6,102.3-59.6,103.4-60.2c2.7-1.4,5.9-1.4,8.6,0c1.1,0.6,102.3,59.6,103.4,60.2
												c0.8,0.4,1.4,1.1,1.7,2h0.1V107.9z"></path>
		<path class="compute-st3" d="M230.2,110.1c-1.1.6-102.3,59.1-103.4,59.8a9.33,9.33,0,0,1-8.6,0c-1.1-.6-102.3-59.1-103.4-59.8a2.7,2.7,0,0,1-1.7-3.3,2.86,2.86,0,0,1,1.7-1.7c1.1-.6,102.3-59.1,103.4-59.8a9.33,9.33,0,0,1,8.6,0c1.1.6,102.3,59.1,103.4,59.8a2.56,2.56,0,0,1,1.6,3.3A2.68,2.68,0,0,1,230.2,110.1Zm-7.2-5.2c-1-.6-96-55.9-97.1-56.5a8.9,8.9,0,0,0-8.1,0c-1,.6-96,55.9-97.1,56.5a2.5,2.5,0,0,0,0,4.7c1,.6,96.1,55.9,97.1,56.5a8.9,8.9,0,0,0,8.1,0c1-.6,96.1-55.9,97.1-56.5a2.45,2.45,0,0,0,1.5-3.2A3.11,3.11,0,0,0,223,104.9Z"></path>
		<path class="compute-st4" d="M116.9,165.9c-0.8-0.4-50.8-29.5-78.8-45.7c30.3-17.5,78.3-45.2,79-45.7c2.7-1.4,5.9-1.4,8.6,0c0.8,0.4,48.1,27.8,78.5,45.4c-27.9,16.2-78.5,45.6-79.3,46C122.5,167.2,119.5,167.2,116.9,165.9z"></path>
		<g>
			<path class="compute-st5" d="M25,127.8l5.3,3.2"></path>
			<path class="compute-st6" d="M25,133.1l5.3,3.2"></path>
			<path class="compute-st6" d="M34.6,133.1l5.3,3.2"></path>
			<path id="Kształt_2147_kopia_2-2" class="compute-st5" d="M34.6,138.5l5.3,3.2"></path>
		</g>
		<g>
			<path class="compute-st7" d="M210,132.5v7"></path>
			<path class="compute-st7" d="M214,130v7"></path>
			<path class="compute-st7" d="M218,127.5v7.5"></path>
			<path class="compute-st7" d="M222,125.4v7"></path>
		</g>
		<path class="compute-st8" d="M69.5,156.8l38.6,22.1"></path>
	</g>
	<g class="svg-illustration-top">
		<path class="compute-st9" d="M232,64.1L12,63.7c0,0,0,3.6,0,5.1l0,0c0.1,1.1,0.8,2.1,1.8,2.5c1.1,0.6,102.8,59.9,103.9,60.5c2.7,1.4,5.9,1.4,8.6,0c1.1-0.6,102.8-59.9,103.9-60.5c1-0.5,1.7-1.4,1.8-2.5l0,0C231.9,67.7,232,64.1,232,64.1"></path>
		<path class="compute-st10" d="M122-0.1c-1.5,0-3,0.3-4.3,1c-1.1,0.7-102.8,60-103.9,60.6c-1,0.5-1.7,1.4-1.8,2.5l0,0c0.1,1.1,0.8,2.1,1.8,2.5c1.1,0.6,102.8,59.9,103.9,60.5c2.7,1.4,5.9,1.4,8.6,0c1.1-0.6,102.8-59.9,103.9-60.5c1-0.5,1.7-1.4,1.8-2.5l0,0c-0.1-1.1-0.8-2.1-1.8-2.5C229.1,60.8,127.4,1.6,126.3,1C125,0.2,123.5-0.1,122-0.1"></path>
		<g id="buttons">
			<g id="blocks">
				<path class="compute-st11" d="M203.5,64.6l-38.8,23c-0.8,0.4-1.7,0.3-2.4-0.1l-38.4-22.7c-0.7-0.4-0.8-1.1-0.2-1.4l38.8-23c0.8-0.4,1.7-0.3,2.4,0.1l38.5,22.6C204.1,63.5,204.2,64.2,203.5,64.6z M122.3,62.1c-0.8,0.4-1.7,0.3-2.4-0.1L81.5,39.3c-0.7-0.4-0.8-1.1-0.2-1.4l38.8-23c0.8-0.4,1.7-0.3,2.4,0.1l38.4,22.7c0.7,0.4,0.8,1.1,0.2,1.4L122.3,62.1z M118.7,64.6l-38.8,23
																c-0.8,0.4-1.7,0.3-2.4-0.1L39.1,64.7c-0.7-0.4-0.8-1.1-0.2-1.4l38.8-23c0.8-0.4,1.7-0.3,2.4,0.1l38.4,22.7C119.2,63.5,119.3,64.2,118.7,64.6z M120.3,65.3c0.8-0.4,1.7-0.3,2.4,0.1L161.2,88c0.7,0.4,0.8,1.1,0.2,1.4l-37.5,22.2c-1.6,0.9-3.5,0.9-5,0l-37.3-22c-0.7-0.4-0.8-1.1-0.2-1.4L120.3,65.3z"></path>
				<path class="compute-st12" d="M84.1,37.9v-5.3h74.3v5.3c0.1,0.4-0.1,0.9-0.4,1.1l-35.7,20.9c-0.7,0.3-1.6,0.3-2.2-0.1L84.7,39.2C84.2,38.9,84,38.4,84.1,37.9z"></path>
				<path class="compute-st13" d="M41.7,63.4v-5.8l74.3,0.1v5.8c0.1,0.4-0.1,0.9-0.4,1.1L79.8,85.4c-0.7,0.3-1.6,0.3-2.2-0.1L42.2,64.7C41.8,64.4,41.6,63.9,41.7,63.4z"></path>
				<path class="compute-st14" d="M126.7,63v-5.3h74.4V63c0.1,0.4-0.1,0.9-0.4,1.1l-35.8,20.8c-0.7,0.3-1.6,0.3-2.3-0.1l-35.4-20.5C126.8,64,126.6,63.5,126.7,63z"></path>
				<path class="compute-st15" d="M84.5,31.5l35.7-20.9c0.7-0.3,1.6-0.3,2.3,0.1l35.4,20.7c0.7,0.4,0.7,1,0.2,1.3l-35.7,20.9c-0.7,0.3-1.6,0.3-2.2-0.1L84.6,32.8C84,32.4,83.9,31.9,84.5,31.5z M126.9,57l35.7-20.9c0.7-0.3,1.6-0.3,2.3,0.1l35.4,20.7c0.7,0.4,0.7,1,0.2,1.3l-35.8,20.9c-0.7,0.3-1.6,0.3-2.2-0.1l-35.4-20.7C126.4,57.9,126.3,57.3,126.9,57L126.9,57z
																 M42.1,57l35.6-20.9c0.7-0.3,1.6-0.3,2.3,0.1l35.4,20.7c0.7,0.4,0.7,1,0.2,1.3L79.8,79.1c-0.7,0.3-1.6,0.3-2.2-0.1L42.2,58.3C41.6,57.9,41.5,57.3,42.1,57L42.1,57z"></path>
				<path class="compute-st16" d="M84.2,87.7v-5.3h74.4v5.3c0.1,0.4-0.1,0.9-0.4,1.1l-35.8,20.8c-0.7,0.3-1.6,0.3-2.3-0.1L84.8,88.9C84.3,88.6,84.1,88.1,84.2,87.7z"></path>
				<path class="compute-st17" d="M84.5,82.4l35.7-20.9c0.7-0.3,1.6-0.3,2.3,0.1l35.4,20.7c0.7,0.4,0.7,1,0.2,1.3l-35.7,20.9c-0.7,0.3-1.6,0.3-2.2-0.1L84.6,83.7C84,83.4,83.9,82.8,84.5,82.4z"></path>
			</g>
			<g id="icons">
				<path class="compute-st18" d="M115.2,29.2l2-1.1l11.7,6.8L127,36L115.2,29.2z"></path>
				<path class="compute-st18" d="M126.9,28l1.9,1.1l-11.7,6.8l-2-1.1L126.9,28z"></path>
				<path class="compute-st18" d="M156.5,55.4l1.9-1.1l11.7,6.8l-2,1.1L156.5,55.4z"></path>
				<path class="compute-st18" d="M83,61.3l-11.6-6.4l1.9-1.1l11.6,6.4L83,61.3z M76.1,60.3l-2.4,1.3l-2.3-1.4l2.4-1.3L76.1,60.3z"></path>
				<path class="compute-st18" d="M85.1,54.8l-2.3,1.3l-2.4-1.4l2.4-1.3L85.1,54.8z"></path>
				<path class="compute-st19" d="M116.7,77.8l2-1.1l11.7,6.8l-1.9,1.1L116.7,77.8z M111.1,81.2l2-1.1l11.7,6.8l-1.9,1.1L111.1,81.2z"></path>
				<path class="compute-st20" d="M132,84.1l-9,0l0,5l-3,0v-5h-9v-2l9,0l0-5l3,0v5h9V84.1z"></path>
			</g>
		</g>
	</g>
	<defs>
		<linearGradient id="compute-gradient_1" gradientUnits="userSpaceOnUse" x1="84.075" y1="402.3569" x2="158.426" y2="402.3569" gradientTransform="matrix(1 0 0 1 0 -356)">
			<stop offset="0" style="stop-color:#373F6E"></stop>
			<stop offset="0.46" style="stop-color:#373F6E"></stop>
			<stop offset="1" style="stop-color:#5A6291"></stop>
		</linearGradient>
		<linearGradient id="compute-gradient_2" gradientUnits="userSpaceOnUse" x1="41.6745" y1="427.5834" x2="116.026" y2="427.5834" gradientTransform="matrix(1 0 0 1 0 -356)">
			<stop offset="0" style="stop-color:#373F6E"></stop>
			<stop offset="1" style="stop-color:#5A6291"></stop>
		</linearGradient>
		<linearGradient id="compute-gradient_3" gradientUnits="userSpaceOnUse" x1="126.6745" y1="427.4069" x2="201.126" y2="427.4069" gradientTransform="matrix(1 0 0 1 0 -356)">
			<stop offset="0" style="stop-color:#373F6E"></stop>
			<stop offset="1" style="stop-color:#5A6291"></stop>
		</linearGradient>
		<linearGradient id="compute-gradient_5" gradientUnits="userSpaceOnUse" x1="41.6969" y1="400.85" x2="200.8531" y2="400.85" gradientTransform="matrix(1 0 0 1 0 -356)">
			<stop offset="0" style="stop-color:#5B6791"></stop>
			<stop offset="1" style="stop-color:#69759F"></stop>
		</linearGradient>
		<linearGradient id="compute-gradient_4" gradientUnits="userSpaceOnUse" x1="84.175" y1="452.1069" x2="158.626" y2="452.1069" gradientTransform="matrix(1 0 0 1 0 -356)">
			<stop offset="0" style="stop-color:#1D53DA"></stop>
			<stop offset="1" style="stop-color:#3F75FC"></stop>
		</linearGradient>
		<linearGradient id="compute-gradient_6" gradientUnits="userSpaceOnUse" x1="84.0969" y1="439" x2="158.3339" y2="439" gradientTransform="matrix(1 0 0 1 0 -356)">
			<stop offset="0" style="stop-color:#0397F6"></stop>
			<stop offset="1" style="stop-color:#00BAFF"></stop>
		</linearGradient>
		<linearGradient id="compute-gradient_7" gradientUnits="userSpaceOnUse" x1="12" y1="419.9333" x2="232" y2="419.9333" gradientTransform="matrix(1 0 0 1 0 -356)">
			<stop offset="5.139655e-03" style="stop-color:#3F4B75"></stop>
			<stop offset="1" style="stop-color:#636F99"></stop>
		</linearGradient>
		<linearGradient id="compute-gradient_10" gradientUnits="userSpaceOnUse" x1="12" y1="478.1" x2="231" y2="478.1" gradientTransform="matrix(1 0 0 1 0 -356)">
			<stop offset="0.48" style="stop-color:#D2D8E6"></stop>
			<stop offset="0.52" style="stop-color:#E0E4EF"></stop>
		</linearGradient>
		<linearGradient id="compute-gradient_9" gradientUnits="userSpaceOnUse" x1="12.0937" y1="478.0688" x2="231.0938" y2="478.0688" gradientTransform="matrix(1 0 0 1 0 -356)">
			<stop offset="0" style="stop-color:#BBC1D4;stop-opacity:0"></stop>
			<stop offset="0.35" style="stop-color:#BBC1D4;stop-opacity:0.7"></stop>
			<stop offset="1" style="stop-color:#BBC1D4;stop-opacity:0"></stop>
		</linearGradient>
		<linearGradient id="compute-gradient_8" gradientUnits="userSpaceOnUse" x1="12" y1="454.2966" x2="232" y2="454.2966" gradientTransform="matrix(1 0 0 1 0 -356)">
			<stop offset="0" style="stop-color:#373F6E"></stop>
			<stop offset="1" style="stop-color:#5A6291"></stop>
		</linearGradient>
		<linearGradient id="compute-gradient_17" x1="122.26" y1="-395.29" x2="122.26" y2="-520.94" gradientTransform="matrix(1, 0, 0, -1, 0, -278)" gradientUnits="userSpaceOnUse">
			<stop offset="0" stop-color="#13151e" stop-opacity="0"></stop>
			<stop offset="1" stop-color="#131532"></stop>
		</linearGradient>
		<style type="text/css">
		.compute-st0 {
			opacity: 8.000000e-02;
			fill: #001855;
			enable-background: new;
		}

		.compute-st1 {
			fill: url(#compute-gradient_10);
		}

		.compute-st2 {
			fill: url(#compute-gradient_9);
		}

		.compute-st3 {
			fill: #FFFFFF;
			fill-opacity: 0.5;
		}

		.compute-st4 {
			fill: #333C5E;
		}

		.compute-st5 {
			opacity: 0.32;
			fill: none;
			stroke: #142149;
			stroke-width: 2.1386;
			stroke-linecap: round;
			stroke-linejoin: round;
			enable-background: new;
		}

		.compute-st6 {
			opacity: 0.48;
			fill: none;
			stroke: #142149;
			stroke-width: 2.1386;
			stroke-linecap: round;
			stroke-linejoin: round;
			enable-background: new;
		}

		.compute-st7 {
			opacity: 0.32;
			fill: none;
			stroke: #142149;
			stroke-width: 2.0091;
			stroke-linecap: round;
			stroke-linejoin: round;
			enable-background: new;
		}

		.compute-st8 {
			opacity: 0.32;
			fill: none;
			stroke: #142149;
			stroke-width: 2.0602;
			stroke-linecap: round;
			stroke-linejoin: round;
			enable-background: new;
		}

		.compute-st9 {
			fill: url(#compute-gradient_8);
		}

		.compute-st10 {
			fill: url(#compute-gradient_7);
		}

		.compute-st11 {
			opacity: 0.7;
			fill: #1D2540;
			enable-background: new;
		}

		.compute-st12 {
			fill: url(#compute-gradient_1);
		}

		.compute-st13 {
			fill: url(#compute-gradient_2);
		}

		.compute-st14 {
			fill: url(#compute-gradient_3);
		}

		.compute-st15 {
			fill: url(#compute-gradient_5);
		}

		.compute-st16 {
			fill: url(#compute-gradient_4);
		}

		.compute-st17 {
			fill: url(#compute-gradient_6);
		}

		.compute-st18 {
			fill: #FFFFFF;
		}

		.compute-st19 {
			display: none;
			fill: #FFFFFF;
		}

		.compute-st20 {
			fill-rule: evenodd;
			clip-rule: evenodd;
			fill: #FFFFFF;
		}

		.compute-cls-21 {
			opacity: 0.08;
			fill: url(#compute-gradient_17);
		}

		</style>
	</defs>
</svg>