<svg class="svg-product" width="156" height="156" viewBox="0 0 156 156" fill="none" xmlns="http://www.w3.org/2000/svg" data-animation="" data-animation-options="type: packageIcon; delay: 320;">
	<g class="svg-illustration-shadow" data-animation-shadow="" style="">
		<path opacity="0.08" d="M77.9184 75.8012C76.9646 75.7846 76.0214 76.004 75.1728 76.4397C74.4704 76.8228 9.85172 113.921 9.14934 114.304C8.83134 114.441 8.55652 114.662 8.35413 114.944C8.15174 115.225 8.02935 115.555 8 115.9C8.03767 116.243 8.1633 116.57 8.36469 116.85C8.56608 117.13 8.83638 117.352 9.14934 117.497C9.85172 117.88 74.4704 154.978 75.1728 155.361C76.021 155.802 76.9627 156.032 77.9184 156.032C78.8742 156.032 79.8159 155.802 80.6641 155.361C81.3664 154.978 145.985 117.88 146.688 117.497C147.005 117.359 147.28 117.139 147.483 116.857C147.685 116.576 147.807 116.246 147.837 115.9C147.799 115.558 147.674 115.231 147.472 114.951C147.271 114.671 147 114.449 146.688 114.304C145.985 113.921 81.3664 76.8228 80.6641 76.4397C79.8049 76.0334 78.8687 75.8157 77.9184 75.8012Z" fill="url(#paint0_linear_4289_196097)"></path>
	</g>
	<g class="svg-illustration-bottom" data-animation-bottom="" style="">
		<path d="M147.841 68.2929V86.9379C147.804 87.2804 147.678 87.6075 147.477 87.8872C147.275 88.1669 147.005 88.3898 146.692 88.5342C145.99 88.9173 81.3708 126.016 80.6685 126.399C79.8203 126.839 78.8786 127.069 77.9228 127.069C76.9671 127.069 76.0253 126.839 75.1772 126.399C74.4748 126.016 9.85612 88.9173 9.15374 88.5342C8.83574 88.3969 8.56091 88.1759 8.35852 87.8948C8.15613 87.6137 8.03375 87.283 8.00439 86.9379V68.3568V68.0375H8.06825C8.1552 67.7632 8.29599 67.509 8.48237 67.2897C8.66876 67.0704 8.897 66.8905 9.15374 66.7605C9.85612 66.3774 74.4748 28.7044 75.1772 28.3213C76.0253 27.8808 76.9671 27.6509 77.9228 27.6509C78.8786 27.6509 79.8203 27.8808 80.6685 28.3213C81.3708 28.7044 145.99 66.3774 146.692 66.7605C146.949 66.8905 147.177 67.0704 147.363 67.2897C147.55 67.509 147.69 67.7632 147.777 68.0375H147.841V68.2929Z" fill="url(#paint1_linear_4289_196097)"></path>
		<path d="M147.899 68.2739V86.9188C147.861 87.2614 147.736 87.5884 147.534 87.8682C147.333 88.1479 147.062 88.3707 146.75 88.5151C146.047 88.8982 81.4285 125.997 80.7261 126.38C79.8779 126.82 78.9362 127.05 77.9804 127.05C77.0247 127.05 76.083 126.82 75.2348 126.38C74.5324 125.997 9.91373 88.8982 9.21136 88.5151C8.89335 88.3778 8.61853 88.1569 8.41614 87.8758C8.21375 87.5947 8.09137 87.2639 8.06201 86.9188V68.3377V68.0185H8.12586C8.21282 67.7442 8.35361 67.4899 8.53999 67.2706C8.72638 67.0514 8.95461 66.8715 9.21136 66.7414C9.91373 66.3583 74.5324 28.6854 75.2348 28.3023C76.083 27.8618 77.0247 27.6318 77.9804 27.6318C78.9362 27.6318 79.8779 27.8618 80.7261 28.3023C81.4285 28.6854 146.047 66.3583 146.75 66.7414C147.006 66.8715 147.234 67.0514 147.421 67.2706C147.607 67.4899 147.748 67.7442 147.835 68.0185H147.899V68.2739Z" fill="url(#paint2_linear_4289_196097)"></path>
		<path d="M146.692 69.6977C145.989 70.0808 81.3708 107.434 80.6684 107.881C79.8203 108.322 78.8785 108.552 77.9228 108.552C76.967 108.552 76.0253 108.322 75.1771 107.881C74.4748 107.498 9.85609 70.1447 9.15371 69.6977C8.73767 69.5518 8.39331 69.2522 8.19141 68.8603C7.98952 68.4683 7.94543 68.014 8.06822 67.5906C8.15952 67.3417 8.30392 67.1157 8.49137 66.9282C8.67882 66.7408 8.90484 66.5964 9.15371 66.5051C9.85609 66.122 74.4748 28.7683 75.1771 28.3213C76.0253 27.8808 76.967 27.6509 77.9228 27.6509C78.8785 27.6509 79.8203 27.8808 80.6684 28.3213C81.3708 28.7044 145.989 66.0581 146.692 66.5051C146.899 66.5739 147.09 66.6835 147.254 66.8275C147.418 66.9714 147.552 67.1467 147.647 67.3431C147.742 67.5395 147.797 67.753 147.809 67.971C147.82 68.1889 147.788 68.4069 147.714 68.6122C147.636 68.8585 147.504 69.084 147.327 69.272C147.15 69.46 146.933 69.6055 146.692 69.6977ZM142.094 66.3774C141.456 65.9942 80.7962 30.6838 80.0938 30.3007C79.2931 29.8916 78.4069 29.6782 77.5077 29.6782C76.6086 29.6782 75.7223 29.8916 74.9217 30.3007C74.2832 30.6838 13.6234 65.9942 12.921 66.3774C12.6128 66.4892 12.3466 66.6932 12.1584 66.9617C11.9703 67.2302 11.8693 67.5501 11.8693 67.8779C11.8693 68.2057 11.9703 68.5256 12.1584 68.7941C12.3466 69.0626 12.6128 69.2666 12.921 69.3784C13.5595 69.7615 74.2832 105.072 74.9217 105.455C75.7223 105.864 76.6086 106.078 77.5077 106.078C78.4069 106.078 79.2931 105.864 80.0938 105.455C80.7323 105.072 141.456 69.7615 142.094 69.3784C142.294 69.3108 142.478 69.2035 142.635 69.063C142.792 68.9225 142.919 68.7517 143.009 68.5608C143.098 68.37 143.148 68.1631 143.156 67.9524C143.163 67.7418 143.128 67.5319 143.052 67.3351C142.855 66.9135 142.516 66.5745 142.094 66.3774Z" fill="white" fill-opacity="0.5"></path>
		<path d="M74.9855 105.327C74.4747 105.072 42.5485 86.491 24.6698 76.1469C44.0171 64.9727 74.6663 47.2856 75.1132 46.9663C75.9614 46.5258 76.9031 46.2959 77.8589 46.2959C78.8146 46.2959 79.7563 46.5258 80.6045 46.9663C81.1154 47.2217 111.318 64.7173 130.729 75.9553C112.914 86.2994 80.6045 105.072 80.0937 105.327C79.3045 105.737 78.4286 105.95 77.5396 105.95C76.6507 105.95 75.7747 105.737 74.9855 105.327Z" fill="#333C5E"></path>
		<path opacity="0.32" fill-rule="evenodd" clip-rule="evenodd" d="M15.7066 80.6355C15.9007 80.312 16.3204 80.207 16.644 80.4012L20.0601 82.4508C20.3836 82.645 20.4886 83.0647 20.2944 83.3882C20.1003 83.7118 19.6806 83.8167 19.357 83.6226L15.9409 81.5729C15.6174 81.3788 15.5125 80.9591 15.7066 80.6355Z" fill="#142149"></path>
		<path opacity="0.48" fill-rule="evenodd" clip-rule="evenodd" d="M15.7066 84.0515C15.9007 83.728 16.3204 83.6231 16.644 83.8172L20.0601 85.8669C20.3836 86.061 20.4886 86.4807 20.2944 86.8042C20.1003 87.1278 19.6806 87.2327 19.357 87.0386L15.9409 84.9889C15.6174 84.7948 15.5125 84.3751 15.7066 84.0515Z" fill="#142149"></path>
		<path opacity="0.48" fill-rule="evenodd" clip-rule="evenodd" d="M21.8559 84.0511C22.0503 83.7277 22.4701 83.6231 22.7935 83.8175L26.2032 85.8672C26.5266 86.0616 26.6312 86.4813 26.4368 86.8047C26.2424 87.1281 25.8226 87.2327 25.4992 87.0383L22.0895 84.9886C21.7661 84.7942 21.6615 84.3745 21.8559 84.0511Z" fill="#142149"></path>
		<path opacity="0.32" fill-rule="evenodd" clip-rule="evenodd" d="M21.8559 87.4607C22.0503 87.1373 22.4701 87.0327 22.7935 87.2272L26.2032 89.2768C26.5266 89.4712 26.6312 89.891 26.4368 90.2144C26.2424 90.5378 25.8226 90.6423 25.4992 90.4479L22.0895 88.3983C21.7661 88.2039 21.6615 87.7841 21.8559 87.4607Z" fill="#142149"></path>
		<path opacity="0.32" fill-rule="evenodd" clip-rule="evenodd" d="M134.413 83.3389C134.768 83.3389 135.055 83.6262 135.055 83.9806V88.4502C135.055 88.8047 134.768 89.092 134.413 89.092C134.059 89.092 133.772 88.8047 133.772 88.4502V83.9806C133.772 83.6262 134.059 83.3389 134.413 83.3389Z" fill="#142149"></path>
		<path opacity="0.32" fill-rule="evenodd" clip-rule="evenodd" d="M136.98 81.7368C137.335 81.7368 137.622 82.0241 137.622 82.3785V86.8482C137.622 87.2026 137.335 87.4899 136.98 87.4899C136.626 87.4899 136.339 87.2026 136.339 86.8482V82.3785C136.339 82.0241 136.626 81.7368 136.98 81.7368Z" fill="#142149"></path>
		<path opacity="0.32" fill-rule="evenodd" clip-rule="evenodd" d="M139.547 80.1338C139.901 80.1338 140.189 80.4211 140.189 80.7755V85.59C140.189 85.9444 139.901 86.2317 139.547 86.2317C139.193 86.2317 138.905 85.9444 138.905 85.59V80.7755C138.905 80.4211 139.193 80.1338 139.547 80.1338Z" fill="#142149"></path>
		<path opacity="0.32" fill-rule="evenodd" clip-rule="evenodd" d="M142.114 78.8506C142.468 78.8506 142.756 79.1379 142.756 79.4923V83.962C142.756 84.3164 142.468 84.6037 142.114 84.6037C141.759 84.6037 141.472 84.3164 141.472 83.962V79.4923C141.472 79.1379 141.759 78.8506 142.114 78.8506Z" fill="#142149"></path>
		<path opacity="0.32" fill-rule="evenodd" clip-rule="evenodd" d="M44.1679 99.1832C44.3486 98.8681 44.7505 98.7591 45.0656 98.9398L69.7318 113.083C70.0469 113.264 70.1559 113.666 69.9752 113.981C69.7945 114.296 69.3926 114.405 69.0775 114.224L44.4113 100.081C44.0962 99.9002 43.9873 99.4983 44.1679 99.1832Z" fill="#142149"></path>
	</g>
	<g class="svg-illustration-top" data-animation-top="" style="">
		<path fill-rule="evenodd" clip-rule="evenodd" d="M81.2708 85.1714L88.3196 89.253C88.5296 89.3594 88.7617 89.4149 88.9972 89.4149C89.2326 89.4149 89.4647 89.3594 89.6748 89.253L95.7742 85.7315L91.0317 82.9986C90.5639 82.7292 90.5641 82.2918 91.0317 82.0216C91.2941 81.8884 91.5842 81.8189 91.8785 81.8187C92.1728 81.8185 92.463 81.8876 92.7256 82.0204L97.4681 84.7533L141.011 59.6136L136.269 56.8807C135.801 56.6113 135.801 56.1739 136.269 55.9037L136.439 55.8059C136.701 55.6727 136.992 55.6032 137.286 55.603C137.58 55.6028 137.87 55.6719 138.133 55.8047L141.011 57.4639C141.011 57.4639 146.217 54.4591 147.62 53.649C148.488 53.1477 147.62 52.4765 147.451 52.3789C147.176 52.2202 145.757 51.4028 145.757 51.4028C145.757 51.4028 143.417 52.7541 143.046 52.9679C142.674 53.1818 142.173 53.2342 141.522 52.8713C141.357 52.7829 139.15 51.505 139.15 51.505" fill="url(#paint3_linear_4289_196097)"></path>
		<path fill-rule="evenodd" clip-rule="evenodd" d="M92.3871 83.7775L95.7746 85.7295L89.6751 89.251C89.4651 89.3574 89.233 89.4129 88.9975 89.4129C88.7621 89.4129 88.5299 89.3574 88.3199 89.251L85.6279 87.6998L92.3871 83.7775ZM145.758 51.4009C145.758 51.4009 147.176 52.2183 147.452 52.3769C147.62 52.4747 148.489 53.1458 147.62 53.647C146.217 54.4572 141.011 57.462 141.011 57.462L138.133 55.8028L145.758 51.4009ZM137.625 57.6596L141.011 59.6117L97.4684 84.7513L94.0989 82.8096L137.625 57.6596Z" fill="url(#paint4_linear_4289_196097)"></path>
		<path fill-rule="evenodd" clip-rule="evenodd" d="M89.4213 88.8113C89.5616 88.7303 89.5438 88.5889 89.3822 88.4954L86.7966 87.0054L86.288 87.2988L88.8735 88.7888C88.9567 88.8351 89.0496 88.8612 89.1448 88.8651C89.2399 88.869 89.3346 88.8506 89.4213 88.8113Z" fill="white"></path>
		<path fill-rule="evenodd" clip-rule="evenodd" d="M90.4377 88.2244C90.578 88.1434 90.5604 88.002 90.3986 87.9084L87.813 86.4185L87.3043 86.7119L89.8899 88.2019C89.9731 88.2482 90.066 88.2743 90.1611 88.2782C90.2562 88.2821 90.351 88.2637 90.4377 88.2244Z" fill="white"></path>
		<path fill-rule="evenodd" clip-rule="evenodd" d="M91.4542 87.6375C91.5945 87.5565 91.5769 87.415 91.4151 87.3215L88.8293 85.8315L88.3207 86.125L90.9063 87.615C90.9895 87.6613 91.0824 87.6874 91.1776 87.6913C91.2727 87.6952 91.3675 87.6768 91.4542 87.6375Z" fill="white"></path>
		<path fill-rule="evenodd" clip-rule="evenodd" d="M92.4713 87.0511C92.6117 86.9701 92.5939 86.8286 92.4321 86.7351L89.8465 85.2451L89.3379 85.5386L91.9235 87.0286C92.0067 87.0749 92.0995 87.101 92.1947 87.1049C92.2898 87.1088 92.3845 87.0904 92.4713 87.0511Z" fill="white"></path>
		<path fill-rule="evenodd" clip-rule="evenodd" d="M93.4882 86.4637C93.6286 86.3827 93.6108 86.2412 93.449 86.1477L90.8623 84.6577L90.3536 84.9512L92.9392 86.4412C93.0226 86.4876 93.1157 86.5139 93.211 86.5178C93.3064 86.5217 93.4013 86.5032 93.4882 86.4637Z" fill="white"></path>
		<path fill-rule="evenodd" clip-rule="evenodd" d="M94.5044 85.8768C94.6448 85.7958 94.627 85.6543 94.4652 85.5608L91.8793 84.0708L91.3706 84.3643L93.9562 85.8542C94.0394 85.9006 94.1324 85.9268 94.2276 85.9307C94.3228 85.9346 94.4176 85.9161 94.5044 85.8768Z" fill="white"></path>
		<path fill-rule="evenodd" clip-rule="evenodd" d="M97.7238 84.0179C97.8641 83.9369 97.8465 83.7954 97.6847 83.7019L95.0991 82.2119L94.5905 82.5054L97.176 83.9954C97.2592 84.0416 97.3521 84.0677 97.4473 84.0716C97.5424 84.0756 97.6371 84.0571 97.7238 84.0179Z" fill="white"></path>
		<path fill-rule="evenodd" clip-rule="evenodd" d="M98.7401 83.431C98.8803 83.35 98.8627 83.2085 98.7009 83.115L96.1154 81.625L95.6067 81.9185L98.1925 83.4084C98.2756 83.4547 98.3685 83.4808 98.4636 83.4847C98.5587 83.4887 98.6534 83.4702 98.7401 83.431Z" fill="white"></path>
		<path fill-rule="evenodd" clip-rule="evenodd" d="M99.7564 82.8445C99.8969 82.7635 99.8791 82.6221 99.7173 82.5286L97.1317 81.0386L96.623 81.332L99.2086 82.822C99.2918 82.8683 99.3847 82.8945 99.4798 82.8984C99.575 82.9023 99.6697 82.8838 99.7564 82.8445Z" fill="white"></path>
		<path fill-rule="evenodd" clip-rule="evenodd" d="M100.773 82.2571C100.913 82.1761 100.896 82.0347 100.734 81.9412L98.1483 80.4512L97.6396 80.7446L100.225 82.2346C100.308 82.2809 100.401 82.3071 100.496 82.311C100.592 82.3149 100.686 82.2964 100.773 82.2571Z" fill="white"></path>
		<path fill-rule="evenodd" clip-rule="evenodd" d="M101.79 81.6702C101.93 81.5892 101.912 81.4478 101.751 81.3542L99.165 79.8643L98.6564 80.1577L101.242 81.6477C101.325 81.694 101.418 81.7201 101.513 81.724C101.608 81.7279 101.703 81.7095 101.79 81.6702Z" fill="white"></path>
		<path fill-rule="evenodd" clip-rule="evenodd" d="M102.806 81.0838C102.946 81.0028 102.929 80.8613 102.767 80.7678L100.181 79.2778L99.6727 79.5713L102.258 81.0613C102.342 81.1075 102.434 81.1337 102.53 81.1376C102.625 81.1415 102.719 81.1231 102.806 81.0838Z" fill="white"></path>
		<path fill-rule="evenodd" clip-rule="evenodd" d="M103.823 80.4964C103.963 80.4154 103.945 80.2739 103.784 80.1804L101.198 78.6904L100.689 78.9839L103.275 80.4739C103.358 80.5201 103.451 80.5463 103.546 80.5502C103.641 80.5541 103.736 80.5357 103.823 80.4964Z" fill="white"></path>
		<path fill-rule="evenodd" clip-rule="evenodd" d="M104.839 79.91C104.98 79.829 104.962 79.6875 104.8 79.594L102.214 78.104L101.706 78.3975L104.291 79.8874C104.374 79.9337 104.467 79.9599 104.563 79.9638C104.658 79.9677 104.752 79.9493 104.839 79.91Z" fill="white"></path>
		<path fill-rule="evenodd" clip-rule="evenodd" d="M105.856 79.3221C105.996 79.2411 105.979 79.0996 105.817 79.0061L103.231 77.5161L102.723 77.8096L105.308 79.2996C105.391 79.3459 105.484 79.372 105.579 79.3759C105.675 79.3798 105.769 79.3614 105.856 79.3221Z" fill="white"></path>
		<path fill-rule="evenodd" clip-rule="evenodd" d="M106.873 78.7356C107.014 78.6546 106.996 78.5132 106.834 78.4197L104.247 76.9297L103.739 77.2231L106.324 78.7131C106.408 78.7595 106.501 78.7857 106.596 78.7896C106.691 78.7935 106.786 78.775 106.873 78.7356Z" fill="white"></path>
		<path fill-rule="evenodd" clip-rule="evenodd" d="M107.888 78.1492C108.029 78.0682 108.011 77.9268 107.849 77.8332L105.264 76.3433L104.755 76.6367L107.34 78.1267C107.423 78.173 107.516 78.1992 107.611 78.2031C107.706 78.207 107.801 78.1886 107.888 78.1492Z" fill="white"></path>
		<path fill-rule="evenodd" clip-rule="evenodd" d="M108.906 77.5618C109.047 77.4808 109.029 77.3394 108.867 77.2458L106.281 75.7559L105.772 76.0493L108.358 77.5393C108.441 77.5857 108.534 77.6119 108.629 77.6158C108.724 77.6197 108.819 77.6012 108.906 77.5618Z" fill="white"></path>
		<path fill-rule="evenodd" clip-rule="evenodd" d="M109.922 76.9749C110.061 76.8939 110.044 76.7525 109.881 76.6589L107.297 75.1689L106.788 75.4624L109.375 76.9524C109.458 76.9987 109.551 77.0248 109.646 77.0287C109.741 77.0327 109.836 77.0142 109.922 76.9749Z" fill="white"></path>
		<path fill-rule="evenodd" clip-rule="evenodd" d="M110.938 76.3885C111.079 76.3075 111.062 76.166 110.899 76.0725L108.313 74.5825L107.806 74.876L110.391 76.366C110.474 76.4122 110.567 76.4384 110.662 76.4423C110.757 76.4462 110.852 76.4278 110.938 76.3885Z" fill="white"></path>
		<path fill-rule="evenodd" clip-rule="evenodd" d="M111.956 75.8016C112.096 75.7206 112.079 75.5791 111.916 75.4856L109.33 73.9956L108.821 74.2891L111.408 75.7791C111.491 75.8253 111.584 75.8515 111.679 75.8554C111.774 75.8593 111.869 75.8409 111.956 75.8016Z" fill="white"></path>
		<path fill-rule="evenodd" clip-rule="evenodd" d="M112.973 75.2141C113.112 75.1332 113.094 74.9917 112.932 74.8982L110.347 73.4082L109.839 73.7017L112.423 75.1917C112.507 75.238 112.6 75.2641 112.695 75.268C112.791 75.2719 112.886 75.2535 112.973 75.2141Z" fill="white"></path>
		<path fill-rule="evenodd" clip-rule="evenodd" d="M113.988 74.6272C114.129 74.5462 114.112 74.4048 113.949 74.3113L111.363 72.8213L110.854 73.1147L113.44 74.6047C113.524 74.651 113.617 74.6772 113.712 74.6811C113.807 74.685 113.902 74.6666 113.988 74.6272Z" fill="white"></path>
		<path fill-rule="evenodd" clip-rule="evenodd" d="M115.006 74.0403C115.145 73.9593 115.127 73.8179 114.967 73.7244L112.38 72.2344L111.872 72.5278L114.458 74.0178C114.541 74.0641 114.634 74.0903 114.729 74.0942C114.824 74.0981 114.919 74.0796 115.006 74.0403Z" fill="white"></path>
		<path fill-rule="evenodd" clip-rule="evenodd" d="M116.021 73.4539C116.162 73.3729 116.144 73.2315 115.982 73.1379L113.397 71.6479L112.889 71.9414L115.473 73.4314C115.556 73.4777 115.649 73.5038 115.744 73.5077C115.839 73.5116 115.934 73.4932 116.021 73.4539Z" fill="white"></path>
		<path fill-rule="evenodd" clip-rule="evenodd" d="M117.038 72.8665C117.179 72.7855 117.161 72.6441 116.999 72.5505L114.413 71.0605L113.904 71.354L116.49 72.844C116.574 72.8903 116.666 72.9164 116.762 72.9203C116.857 72.9243 116.951 72.9058 117.038 72.8665Z" fill="white"></path>
		<path fill-rule="evenodd" clip-rule="evenodd" d="M118.055 72.2801C118.194 72.1991 118.176 72.0576 118.014 71.9641L115.43 70.4741L114.921 70.7676L117.507 72.2576C117.591 72.3039 117.683 72.33 117.779 72.3339C117.874 72.3378 117.968 72.3194 118.055 72.2801Z" fill="white"></path>
		<path fill-rule="evenodd" clip-rule="evenodd" d="M119.071 71.6932C119.212 71.6122 119.194 71.4707 119.032 71.3772L116.446 69.8872L115.939 70.1807L118.523 71.6707C118.607 71.717 118.699 71.7431 118.795 71.747C118.89 71.7509 118.984 71.7325 119.071 71.6932Z" fill="white"></path>
		<path fill-rule="evenodd" clip-rule="evenodd" d="M120.088 71.1058C120.229 71.0248 120.211 70.8833 120.049 70.7898L117.463 69.2998L116.954 69.5933L119.54 71.0833C119.624 71.1295 119.716 71.1557 119.812 71.1596C119.907 71.1635 120.001 71.1451 120.088 71.1058Z" fill="white"></path>
		<path fill-rule="evenodd" clip-rule="evenodd" d="M121.103 70.5188C121.244 70.4378 121.226 70.2964 121.064 70.2029L118.48 68.7129L117.971 69.0063L120.555 70.4963C120.639 70.5426 120.731 70.5688 120.827 70.5727C120.922 70.5766 121.016 70.5581 121.103 70.5188Z" fill="white"></path>
		<path fill-rule="evenodd" clip-rule="evenodd" d="M122.121 69.9319C122.262 69.8509 122.244 69.7095 122.082 69.616L119.496 68.126L118.987 68.4194L121.573 69.9094C121.657 69.9557 121.75 69.9819 121.845 69.9858C121.94 69.9897 122.034 69.9712 122.121 69.9319Z" fill="white"></path>
		<path fill-rule="evenodd" clip-rule="evenodd" d="M123.138 69.345C123.277 69.264 123.259 69.1226 123.097 69.0291L120.513 67.5391L120.004 67.8325L122.59 69.3225C122.673 69.3688 122.766 69.395 122.861 69.3989C122.957 69.4028 123.051 69.3843 123.138 69.345Z" fill="white"></path>
		<path fill-rule="evenodd" clip-rule="evenodd" d="M124.154 68.7586C124.295 68.6776 124.277 68.5361 124.115 68.4426L121.528 66.9526L121.021 67.2461L123.606 68.7361C123.689 68.7824 123.782 68.8085 123.877 68.8124C123.972 68.8163 124.067 68.7979 124.154 68.7586Z" fill="white"></path>
		<path fill-rule="evenodd" clip-rule="evenodd" d="M125.171 68.1712C125.312 68.0902 125.294 67.9487 125.132 67.8552L122.546 66.3652L122.037 66.6587L124.623 68.1487C124.707 68.195 124.8 68.2211 124.895 68.225C124.99 68.2289 125.085 68.2105 125.171 68.1712Z" fill="white"></path>
		<path fill-rule="evenodd" clip-rule="evenodd" d="M126.188 67.5843C126.327 67.5033 126.309 67.3618 126.147 67.2683L123.562 65.7783L123.054 66.0718L125.638 67.5618C125.722 67.6081 125.815 67.6342 125.91 67.6381C126.006 67.642 126.101 67.6236 126.188 67.5843Z" fill="white"></path>
		<path fill-rule="evenodd" clip-rule="evenodd" d="M127.204 66.9974C127.345 66.9164 127.327 66.7749 127.165 66.6814L124.578 65.1914L124.07 65.4849L126.656 66.9749C126.739 67.0212 126.832 67.0473 126.927 67.0512C127.022 67.0551 127.117 67.0367 127.204 66.9974Z" fill="white"></path>
		<path fill-rule="evenodd" clip-rule="evenodd" d="M128.221 66.4104C128.36 66.3294 128.342 66.188 128.182 66.0945L125.595 64.6045L125.087 64.898L127.673 66.3879C127.756 66.4342 127.849 66.4604 127.944 66.4643C128.039 66.4682 128.134 66.4498 128.221 66.4104Z" fill="white"></path>
		<path fill-rule="evenodd" clip-rule="evenodd" d="M129.236 65.824C129.377 65.743 129.359 65.6016 129.197 65.5081L126.612 64.0181L126.104 64.3115L128.688 65.8015C128.771 65.8478 128.864 65.8739 128.959 65.8778C129.055 65.8817 129.149 65.8633 129.236 65.824Z" fill="white"></path>
		<path fill-rule="evenodd" clip-rule="evenodd" d="M130.253 65.2366C130.394 65.1556 130.376 65.0142 130.214 64.9207L127.627 63.4307L127.119 63.7241L129.705 65.2141C129.788 65.2604 129.881 65.2866 129.976 65.2905C130.071 65.2944 130.166 65.2759 130.253 65.2366Z" fill="white"></path>
		<path fill-rule="evenodd" clip-rule="evenodd" d="M131.271 64.6497C131.41 64.5687 131.392 64.4273 131.23 64.3337L128.646 62.8438L128.137 63.1372L130.723 64.6272C130.807 64.6735 130.899 64.6996 130.995 64.7035C131.09 64.7075 131.184 64.689 131.271 64.6497Z" fill="white"></path>
		<path fill-rule="evenodd" clip-rule="evenodd" d="M132.287 64.0633C132.427 63.9823 132.41 63.8408 132.247 63.7473L129.661 62.2573L129.154 62.5508L131.739 64.0408C131.822 64.0871 131.915 64.1132 132.01 64.1171C132.105 64.121 132.2 64.1026 132.287 64.0633Z" fill="white"></path>
		<path fill-rule="evenodd" clip-rule="evenodd" d="M133.304 63.4759C133.445 63.3949 133.427 63.2534 133.265 63.1599L130.678 61.6699L130.17 61.9634L132.756 63.4534C132.839 63.4997 132.932 63.5258 133.027 63.5297C133.123 63.5336 133.217 63.5152 133.304 63.4759Z" fill="white"></path>
		<path fill-rule="evenodd" clip-rule="evenodd" d="M134.319 62.889C134.46 62.808 134.442 62.6665 134.28 62.573L131.695 61.083L131.187 61.3765L133.771 62.8665C133.854 62.9127 133.947 62.9389 134.042 62.9428C134.137 62.9467 134.232 62.9283 134.319 62.889Z" fill="white"></path>
		<path fill-rule="evenodd" clip-rule="evenodd" d="M135.336 62.3025C135.477 62.2215 135.459 62.0801 135.297 61.9866L132.711 60.4966L132.202 60.79L134.788 62.28C134.872 62.3263 134.964 62.3525 135.06 62.3564C135.155 62.3603 135.249 62.3418 135.336 62.3025Z" fill="white"></path>
		<path fill-rule="evenodd" clip-rule="evenodd" d="M136.354 61.7151C136.493 61.6341 136.475 61.4927 136.313 61.3992L133.728 59.9092L133.22 60.2026L135.806 61.6926C135.889 61.7389 135.982 61.7651 136.077 61.769C136.172 61.7729 136.267 61.7544 136.354 61.7151Z" fill="white"></path>
		<path fill-rule="evenodd" clip-rule="evenodd" d="M137.369 61.1287C137.51 61.0477 137.492 60.9063 137.33 60.8127L134.744 59.3228L134.237 59.6162L136.821 61.1062C136.905 61.1525 136.997 61.1786 137.093 61.1825C137.188 61.1864 137.282 61.168 137.369 61.1287Z" fill="white"></path>
		<path fill-rule="evenodd" clip-rule="evenodd" d="M138.387 60.5413C138.528 60.4603 138.51 60.3189 138.348 60.2253L135.761 58.7354L135.253 59.0288L137.839 60.5188C137.922 60.5651 138.015 60.5912 138.11 60.5952C138.205 60.5991 138.3 60.5806 138.387 60.5413Z" fill="white"></path>
		<path fill-rule="evenodd" clip-rule="evenodd" d="M139.404 59.9544C139.543 59.8734 139.525 59.7319 139.363 59.6384L136.778 58.1484L136.27 58.4419L138.854 59.9319C138.938 59.9782 139.031 60.0043 139.126 60.0082C139.222 60.0121 139.317 59.9937 139.404 59.9544Z" fill="white"></path>
		<path fill-rule="evenodd" clip-rule="evenodd" d="M13.429 37.3272L75.5593 13.1024C77.0273 12.2534 79.5925 12.3591 81.2902 13.3384L142.984 37.4809C143.005 37.4718 143.001 48.1114 142.985 48.7707C142.973 49.2978 142.648 49.8004 141.995 50.1769L80.8543 85.5292C79.3853 86.3791 76.82 86.2731 75.123 85.2941L14.8322 50.4997C13.884 49.9525 13.4077 49.2487 13.4281 48.5863C13.4444 48.0622 13.4336 37.3944 13.429 37.3272Z" fill="url(#paint5_linear_4289_196097)"></path>
		<path fill-rule="evenodd" clip-rule="evenodd" d="M13.429 37.3272L75.5593 13.1024C77.0273 12.2534 79.5925 12.3591 81.2902 13.3384L142.984 37.4809C143.005 37.4718 143.001 48.1114 142.985 48.7707C142.973 49.2978 142.648 49.8004 141.995 50.1769L80.8543 85.5292C79.3853 86.3791 76.82 86.2731 75.123 85.2941L14.8322 50.4997C13.884 49.9525 13.4077 49.2487 13.4281 48.5863C13.4444 48.0622 13.4336 37.3944 13.429 37.3272Z" fill="url(#paint6_linear_4289_196097)"></path>
		<path opacity="0.6" d="M136.503 42.1382V47.0867" stroke="#1D2540" stroke-width="0.5" stroke-linejoin="round"></path>
		<path opacity="0.6" d="M135.545 42.667V47.6156" stroke="#1D2540" stroke-width="0.5" stroke-linejoin="round"></path>
		<path opacity="0.6" d="M134.588 43.2451V48.1937" stroke="#1D2540" stroke-width="0.5" stroke-linejoin="round"></path>
		<path opacity="0.6" d="M133.63 43.7744V48.723" stroke="#1D2540" stroke-width="0.5" stroke-linejoin="round"></path>
		<path opacity="0.6" d="M132.672 44.353V49.3016" stroke="#1D2540" stroke-width="0.5" stroke-linejoin="round"></path>
		<path opacity="0.6" d="M131.714 44.8618V49.8104" stroke="#1D2540" stroke-width="0.5" stroke-linejoin="round"></path>
		<path opacity="0.6" d="M130.756 45.4507V50.3992" stroke="#1D2540" stroke-width="0.5" stroke-linejoin="round"></path>
		<path opacity="0.6" d="M129.799 45.9595V50.908" stroke="#1D2540" stroke-width="0.5" stroke-linejoin="round"></path>
		<path opacity="0.6" d="M128.841 46.5278V51.4764" stroke="#1D2540" stroke-width="0.5" stroke-linejoin="round"></path>
		<path opacity="0.6" d="M127.883 47.0674V52.0159" stroke="#1D2540" stroke-width="0.5" stroke-linejoin="round"></path>
		<path opacity="0.6" d="M126.926 47.6211V52.5697" stroke="#1D2540" stroke-width="0.5" stroke-linejoin="round"></path>
		<path opacity="0.6" d="M125.968 48.1699V53.1185" stroke="#1D2540" stroke-width="0.5" stroke-linejoin="round"></path>
		<path opacity="0.6" d="M125.01 48.7637V53.7122" stroke="#1D2540" stroke-width="0.5" stroke-linejoin="round"></path>
		<path opacity="0.6" d="M124.052 49.2822V54.2308" stroke="#1D2540" stroke-width="0.5" stroke-linejoin="round"></path>
		<path opacity="0.6" d="M123.094 49.8511V54.7996" stroke="#1D2540" stroke-width="0.5" stroke-linejoin="round"></path>
		<path opacity="0.6" d="M122.137 50.4399V55.3885" stroke="#1D2540" stroke-width="0.5" stroke-linejoin="round"></path>
		<path opacity="0.6" d="M121.179 50.9482V55.8968" stroke="#1D2540" stroke-width="0.5" stroke-linejoin="round"></path>
		<path opacity="0.6" d="M120.221 51.5171V56.4657" stroke="#1D2540" stroke-width="0.5" stroke-linejoin="round"></path>
		<path opacity="0.6" d="M119.263 52.1055V57.054" stroke="#1D2540" stroke-width="0.5" stroke-linejoin="round"></path>
		<path opacity="0.6" d="M118.305 52.6045V57.5531" stroke="#1D2540" stroke-width="0.5" stroke-linejoin="round"></path>
		<path opacity="0.6" d="M117.348 53.1436V58.0921" stroke="#1D2540" stroke-width="0.5" stroke-linejoin="round"></path>
		<path opacity="0.6" d="M116.39 53.6719V58.6204" stroke="#1D2540" stroke-width="0.5" stroke-linejoin="round"></path>
		<path opacity="0.6" d="M115.432 54.2505V59.1991" stroke="#1D2540" stroke-width="0.5" stroke-linejoin="round"></path>
		<path opacity="0.6" d="M114.474 54.7593V59.7078" stroke="#1D2540" stroke-width="0.5" stroke-linejoin="round"></path>
		<path opacity="0.6" d="M113.516 55.3481V60.2967" stroke="#1D2540" stroke-width="0.5" stroke-linejoin="round"></path>
		<path opacity="0.6" d="M112.559 55.8569V60.8055" stroke="#1D2540" stroke-width="0.5" stroke-linejoin="round"></path>
		<path opacity="0.6" d="M111.601 56.4253V61.3739" stroke="#1D2540" stroke-width="0.5" stroke-linejoin="round"></path>
		<path opacity="0.6" d="M110.643 57.0337V61.9823" stroke="#1D2540" stroke-width="0.5" stroke-linejoin="round"></path>
		<path opacity="0.6" d="M109.685 57.6021V62.5506" stroke="#1D2540" stroke-width="0.5" stroke-linejoin="round"></path>
		<path opacity="0.6" d="M108.727 58.1265V63.075" stroke="#1D2540" stroke-width="0.5" stroke-linejoin="round"></path>
		<path opacity="0.6" d="M107.769 58.6748V63.6234" stroke="#1D2540" stroke-width="0.5" stroke-linejoin="round"></path>
		<path opacity="0.6" d="M106.812 59.2388V64.1873" stroke="#1D2540" stroke-width="0.5" stroke-linejoin="round"></path>
		<path opacity="0.6" d="M105.854 59.7822V64.7308" stroke="#1D2540" stroke-width="0.5" stroke-linejoin="round"></path>
		<path opacity="0.6" d="M104.896 60.3516V65.3001" stroke="#1D2540" stroke-width="0.5" stroke-linejoin="round"></path>
		<path opacity="0.6" d="M103.938 60.8999V65.8485" stroke="#1D2540" stroke-width="0.5" stroke-linejoin="round"></path>
		<path opacity="0.6" d="M102.98 61.4634V66.4119" stroke="#1D2540" stroke-width="0.5" stroke-linejoin="round"></path>
		<path opacity="0.6" d="M102.023 62.0425V66.991" stroke="#1D2540" stroke-width="0.5" stroke-linejoin="round"></path>
		<path opacity="0.6" d="M101.065 62.5962V67.5448" stroke="#1D2540" stroke-width="0.5" stroke-linejoin="round"></path>
		<path opacity="0.6" d="M100.107 63.1401V68.0887" stroke="#1D2540" stroke-width="0.5" stroke-linejoin="round"></path>
		<path opacity="0.6" d="M99.1495 63.6787V68.6273" stroke="#1D2540" stroke-width="0.5" stroke-linejoin="round"></path>
		<path opacity="0.6" d="M98.1918 64.2573V69.2059" stroke="#1D2540" stroke-width="0.5" stroke-linejoin="round"></path>
		<path opacity="0.6" d="M97.234 64.772V69.7205" stroke="#1D2540" stroke-width="0.5" stroke-linejoin="round"></path>
		<path opacity="0.6" d="M96.2762 65.355V70.3035" stroke="#1D2540" stroke-width="0.5" stroke-linejoin="round"></path>
		<path opacity="0.6" d="M95.3185 65.9136V70.8621" stroke="#1D2540" stroke-width="0.5" stroke-linejoin="round"></path>
		<path opacity="0.6" d="M94.3606 66.4673V71.4158" stroke="#1D2540" stroke-width="0.5" stroke-linejoin="round"></path>
		<path opacity="0.6" d="M93.4028 67.0005V71.9491" stroke="#1D2540" stroke-width="0.5" stroke-linejoin="round"></path>
		<path opacity="0.6" d="M92.4451 67.584V72.5325" stroke="#1D2540" stroke-width="0.5" stroke-linejoin="round"></path>
		<path opacity="0.6" d="M91.4873 68.1206V73.0692" stroke="#1D2540" stroke-width="0.5" stroke-linejoin="round"></path>
		<path opacity="0.6" d="M90.5295 68.6738V73.6224" stroke="#1D2540" stroke-width="0.5" stroke-linejoin="round"></path>
		<path opacity="0.6" d="M89.5717 69.2129V74.1615" stroke="#1D2540" stroke-width="0.5" stroke-linejoin="round"></path>
		<path opacity="0.6" d="M88.6139 69.7744V74.723" stroke="#1D2540" stroke-width="0.5" stroke-linejoin="round"></path>
		<path opacity="0.6" d="M87.6561 70.3481V75.2967" stroke="#1D2540" stroke-width="0.5" stroke-linejoin="round"></path>
		<path opacity="0.6" d="M86.6984 70.8789V75.8275" stroke="#1D2540" stroke-width="0.5" stroke-linejoin="round"></path>
		<path opacity="0.6" d="M85.7406 71.4355V76.3841" stroke="#1D2540" stroke-width="0.5" stroke-linejoin="round"></path>
		<path fill-rule="evenodd" clip-rule="evenodd" d="M14.4181 35.9211L75.5684 0.573432C77.0368 -0.275373 79.603 -0.169645 81.3007 0.809486L141.6 35.5984C143.297 36.5775 143.482 38.0592 142.015 38.9075L80.8633 74.2552C79.3958 75.1051 76.8293 74.999 75.1322 74.0201L14.8323 39.2303C13.1351 38.2513 12.9497 36.7699 14.4181 35.9211Z" fill="url(#paint7_linear_4289_196097)"></path>
		<path opacity="0.6" fill-rule="evenodd" clip-rule="evenodd" d="M47.2509 16.9426L50.2691 38.358L50.3374 38.8426L50.762 39.086L75.8241 53.4528L76.0369 53.5748L76.282 53.5844L114.048 55.0734L115.669 54.1365L76.3214 52.5852L51.2593 38.2184L48.1847 16.4028L47.2509 16.9426Z" fill="#1D2540"></path>
		<path opacity="0.6" d="M13.7467 37.4194L32.5832 35.1846L42.3207 40.9313" stroke="#1D2540" stroke-linejoin="round"></path>
		<g opacity="0.6">
			<path d="M36.0951 31.673L44.5555 26.0859L46.3115 37.739L36.0951 31.673Z" fill="#1D2540"></path>
			<path d="M71.7855 58.8576C71.5472 58.7182 71.2409 58.7985 71.1016 59.0369C70.9622 59.2752 71.0425 59.5815 71.2808 59.7209L71.7855 58.8576ZM81.9092 65.3552L82.3787 65.5273C82.462 65.3 82.3705 65.0457 82.1616 64.9235L81.9092 65.3552ZM77.9279 74.7609C77.8328 75.0202 77.9659 75.3074 78.2252 75.4025C78.4845 75.4976 78.7717 75.3644 78.8668 75.1052L77.9279 74.7609ZM44.5555 26.0859L45.05 26.0114C45.0245 25.8427 44.9148 25.6986 44.7589 25.6291C44.603 25.5597 44.4224 25.5747 44.28 25.6687L44.5555 26.0859ZM36.0951 31.673L35.8196 31.2558C35.6759 31.3507 35.5911 31.5128 35.5952 31.685C35.5994 31.8571 35.6918 32.015 35.8398 32.103L36.0951 31.673ZM46.3115 37.739L46.0562 38.1689C46.2223 38.2676 46.4303 38.2617 46.5906 38.1538C46.7509 38.046 46.8347 37.8555 46.8059 37.6645L46.3115 37.739ZM71.2808 59.7209L81.6569 65.7868L82.1616 64.9235L71.7855 58.8576L71.2808 59.7209ZM81.4398 65.1831L77.9279 74.7609L78.8668 75.1052L82.3787 65.5273L81.4398 65.1831ZM44.28 25.6687L35.8196 31.2558L36.3706 32.0903L44.8311 26.5032L44.28 25.6687ZM35.8398 32.103L46.0562 38.1689L46.5668 37.3091L36.3504 31.2431L35.8398 32.103ZM46.8059 37.6645L45.05 26.0114L44.0611 26.1604L45.8171 37.8135L46.8059 37.6645Z" fill="#1D2540"></path>
		</g>
		<path opacity="0.6" d="M86.5385 62.6414L77.2799 57.8525L95.3182 57.6929L86.5385 62.6414Z" fill="#1D2540" stroke="#1D2540" stroke-linejoin="round"></path>
		<path opacity="0.6" d="M69.6693 21.1746L69.7397 21.1319C74.4055 18.3266 80.5315 16.9071 86.6834 16.9028C92.8665 16.8986 99.0224 18.3242 103.695 21.1512C108.368 23.978 110.607 27.6218 110.606 31.1775C110.605 34.7334 108.364 38.3807 103.689 41.2143C99.0147 44.048 92.8579 45.4818 86.6749 45.486C80.4919 45.4902 74.3359 44.0647 69.6629 41.238C64.9902 38.4115 62.7518 34.7676 62.7528 31.2117C62.7538 27.6556 64.9947 24.008 69.6693 21.1746Z" stroke="#1D2540"></path>
		<path fill-rule="evenodd" clip-rule="evenodd" d="M71.0147 22.0298C79.6864 17.017 93.7446 17.0078 102.414 22.0093C111.083 27.0107 111.08 35.1288 102.409 40.1417C93.7369 45.1547 79.6786 45.1633 71.0096 40.1625C62.3405 35.1616 62.3431 27.0425 71.015 22.0298H71.0147Z" fill="#1D2540"></path>
		<path d="M85.9 25.1285C85.9 25.1285 86.1926 21.7762 85.2614 20.6588C84.4633 19.701 83.9844 19.5414 83.9844 19.5414M89.8907 25.4477C89.8907 25.4477 91.1678 22.734 91.0082 21.457C90.8485 20.1799 90.0504 19.3818 90.0504 19.3818M87.9752 24.8092C87.9752 24.8092 88.8189 22.4148 88.4541 21.1377C88.0892 19.8607 87.3366 19.0625 87.3366 19.0625M92.1256 25.767C92.1256 25.767 93.7219 23.5322 93.7219 22.0955C93.7219 20.6588 93.243 19.8607 93.243 19.8607M93.5623 26.5652C93.5623 26.5652 96.1848 24.49 96.5953 23.0533C97.0057 21.6166 96.5953 20.4992 96.5953 20.4992M94.8393 27.0441C94.8393 27.0441 96.5953 26.8525 98.6705 25.6074C100.746 24.3623 99.7879 21.7762 99.7879 21.7762M96.4356 28.9596C96.4356 28.9596 100.107 28.3211 101.703 27.3633C103.3 26.4055 103.938 24.3303 103.938 24.3303M97.0741 30.5559C97.0741 30.5559 100.586 30.7156 102.98 30.2367C105.375 29.7578 106.971 27.2037 106.971 27.2037M97.0741 31.9926C97.0741 31.9926 101.065 33.5889 103.779 33.11C106.492 32.6311 108.248 30.8752 108.248 30.8752M96.5953 33.5889C96.5953 33.5889 98.6705 35.5045 102.023 35.9834C105.375 36.4623 107.929 34.3871 107.929 34.3871M93.7219 36.3027C93.7219 36.3027 93.8017 38.5375 95.7971 40.1338C97.7925 41.7301 100.746 40.932 100.746 40.932M83.8248 24.9689C83.8248 24.9689 84.144 23.0533 83.1862 21.457C82.2285 19.8607 81.111 19.8607 81.111 19.8607M81.7496 25.767C81.7496 25.767 81.5211 23.1355 80.3129 21.7762C79.1046 20.417 77.5992 20.4992 77.5992 20.4992M91.4866 36.9412C91.4866 36.9412 89.7305 39.8145 91.1675 41.4109C92.6045 43.0072 94.52 42.8475 94.52 42.8475M88.2944 37.4201C88.2944 37.4201 85.7403 38.0586 85.7403 40.7723C85.7403 43.4861 89.4119 43.6457 89.4119 43.6457M84.144 37.1008C84.144 37.1008 83.6651 37.1008 81.9092 39.4953C80.1532 41.8897 83.5055 43.6457 83.5055 43.6457M79.5147 35.6641C79.5147 35.6641 75.0451 35.3449 72.9698 36.7816C70.8946 38.2182 72.1717 40.2934 72.1717 40.2934M77.2799 34.2275C77.2799 34.2275 73.513 33.1324 70.8946 33.7486C68.2763 34.3647 68.0213 36.9412 68.0213 36.9412M76.3221 31.0348C76.3221 31.0348 74.0873 30.3963 70.4158 30.3963C66.7442 30.3963 66.1057 32.7908 66.1057 32.7908M76.9606 28.6404C76.9606 28.6404 74.7258 26.7248 71.3735 26.5652C68.0213 26.4055 66.9039 27.6826 66.9039 27.6826M78.3973 27.2037C78.3973 27.2037 77.1203 25.4477 74.8854 24.1707C72.6506 22.8936 70.2561 23.8514 70.2561 23.8514M79.9936 26.0863C79.9936 26.0863 79.0358 23.8514 77.5992 22.734C76.1625 21.6166 74.5662 21.7762 74.5662 21.7762M95.1586 35.0256C95.1586 35.0256 97.2338 37.6396 100.107 38.5375C102.98 39.4354 105.375 37.899 105.375 37.899M81.9092 36.6219C81.9092 36.6219 78.8762 36.6219 77.1203 38.3779C75.3643 40.1338 77.4395 42.5283 77.4395 42.5283" stroke="#01B6FE" stroke-width="0.5"></path>
		<path fill-rule="evenodd" clip-rule="evenodd" d="M74.0856 23.462C81.318 19.0932 93.0428 19.0852 100.273 23.4441C107.503 27.8029 107.501 34.8779 100.269 39.2468C93.0363 43.6157 81.3115 43.6232 74.0813 39.2649C66.8511 34.9066 66.853 27.8306 74.0856 23.462Z" fill="url(#paint8_radial_4289_196097)"></path>
		<path fill-rule="evenodd" clip-rule="evenodd" d="M79.4622 27.0695C83.6479 24.6981 90.4329 24.6937 94.6178 27.0599C98.8026 29.4261 98.8004 33.2671 94.6155 35.6386C90.4306 38.01 83.644 38.0144 79.4597 35.6485C75.2754 33.2826 75.2764 29.441 79.4622 27.0695Z" fill="url(#paint9_linear_4289_196097)"></path>
		<path fill-rule="evenodd" clip-rule="evenodd" d="M79.4622 26.4309C83.6479 24.0594 90.4329 24.055 94.6178 26.4212C98.8026 28.7875 98.8004 32.6284 94.6155 34.9999C90.4306 37.3713 83.644 37.3758 79.4597 35.0099C75.2754 32.6439 75.2764 28.8023 79.4622 26.4309Z" fill="url(#paint10_linear_4289_196097)"></path>
		<circle opacity="0.7" r="1.21034" transform="matrix(0.809164 0.587582 -0.852509 0.522712 77.9298 3.55428)" fill="#1D2540"></circle>
		<circle opacity="0.7" r="1.21034" transform="matrix(0.809164 0.587582 -0.852509 0.522712 73.9075 69.9151)" fill="#1D2540"></circle>
		<path opacity="0.7" d="M23.4783 40.5384C22.9084 40.8878 22.008 40.8527 21.4671 40.4599C20.9262 40.0671 20.9497 39.4655 21.5196 39.1161C22.0894 38.7666 22.9899 38.8018 23.5308 39.1946C24.0716 39.5873 24.0482 40.189 23.4783 40.5384Z" fill="#1D2540"></path>
		<circle opacity="0.7" r="1.21034" transform="matrix(0.809164 0.587582 -0.852509 0.522712 136.724 37.1959)" fill="#1D2540"></circle>
		<path fill-rule="evenodd" clip-rule="evenodd" d="M18.3761 41.2506C18.8444 41.521 19.4509 43.3288 19.9758 43.6334C20.4358 43.8987 21.0687 42.8789 21.5687 43.1662C33.2897 49.9307 61.341 66.0116 75.0469 73.9239C76.4676 74.7444 77.5002 78.8629 78.7166 79.5621C80.2378 80.3607 85.3878 83.9377 85.3878 83.9377V89.6844C85.3878 89.6844 85.3926 89.8254 85.3632 89.8896C85.3339 89.9537 85.2852 90.0072 85.224 90.0423C85.1628 90.0775 85.0922 90.0927 85.022 90.0857C84.9518 90.0788 84.8854 90.0501 84.8323 90.0037C84.8323 90.0037 81.8312 88.2701 77.0966 85.5372C75.8802 84.838 74.5521 87.2644 73.1313 86.4439C59.4254 78.5326 33.1374 63.3615 21.4163 56.5954C20.9163 56.3081 20.4358 54.7523 19.9758 54.4883C19.4921 54.2093 19.0314 55.2204 18.5953 54.9672L13.4275 52.0395V37.5791C13.4275 37.5791 13.8161 38.6033 14.3853 38.9343C15.5519 39.6128 17.4781 40.7323 18.3761 41.2506Z" fill="url(#paint11_linear_4289_196097)"></path>
		<path opacity="0.6" d="M19.9724 46.6782V51.6268" stroke="#1D2540" stroke-width="0.5" stroke-linejoin="round"></path>
		<path opacity="0.6" d="M20.9302 47.3164V52.265" stroke="#1D2540" stroke-width="0.5" stroke-linejoin="round"></path>
		<path opacity="0.6" d="M21.8879 47.7158V52.6644" stroke="#1D2540" stroke-width="0.5" stroke-linejoin="round"></path>
		<path opacity="0.6" d="M22.8458 48.2446V53.1932" stroke="#1D2540" stroke-width="0.5" stroke-linejoin="round"></path>
		<path opacity="0.6" d="M23.8036 48.8232V53.7718" stroke="#1D2540" stroke-width="0.5" stroke-linejoin="round"></path>
		<path opacity="0.6" d="M24.7614 49.332V54.2806" stroke="#1D2540" stroke-width="0.5" stroke-linejoin="round"></path>
		<path opacity="0.6" d="M25.7191 49.9209V54.8695" stroke="#1D2540" stroke-width="0.5" stroke-linejoin="round"></path>
		<path opacity="0.6" d="M26.6769 50.4297V55.3783" stroke="#1D2540" stroke-width="0.5" stroke-linejoin="round"></path>
		<path opacity="0.6" d="M27.6348 50.998V55.9466" stroke="#1D2540" stroke-width="0.5" stroke-linejoin="round"></path>
		<path fill-rule="evenodd" clip-rule="evenodd" d="M8 42.6022V40.3863C8.8331 39.8803 13.4275 37.3438 13.4275 37.3438L13.4274 52.1053L8 54.9787V53.0369L9.78123 52.0089C9.90752 51.9335 10.0143 51.8294 10.0931 51.7052C10.1719 51.5809 10.2205 51.4399 10.2349 51.2935V50.3863C10.2349 50.1356 10.0318 50.0498 9.78123 50.1944L8 51.2224V44.4167L9.78123 43.3887C9.90752 43.3132 10.0143 43.2092 10.0931 43.085C10.1719 42.9607 10.2205 42.8197 10.2349 42.6733V41.766C10.2349 41.5154 10.0318 41.4296 9.78123 41.5742L8 42.6022ZM10.4119 46.2523C10.6061 45.9161 10.8768 45.6304 11.2021 45.4185C11.8192 45.0625 12.3194 45.3512 12.3194 46.0637C12.2984 46.4513 12.1863 46.8285 11.9921 47.1647C11.798 47.5008 11.5273 47.7864 11.2021 47.9984C10.5848 48.3546 10.0846 48.0657 10.0846 47.3534C10.1056 46.9657 10.2177 46.5885 10.4119 46.2523Z" fill="url(#paint12_linear_4289_196097)"></path>
		<path opacity="0.6" fill-rule="evenodd" clip-rule="evenodd" d="M68.185 78.6845L62.3298 75.3051C61.6449 74.9099 61.0894 73.946 61.0894 73.1526C61.0894 72.359 61.6449 72.0365 62.3298 72.4318L68.185 75.8111C68.8702 76.2064 69.4254 77.1702 69.4254 77.9636C69.4254 78.757 68.8702 79.0798 68.185 78.6845ZM58.3604 73.0141L52.5051 69.635C51.82 69.2395 51.2648 68.2756 51.2648 67.4822C51.2648 66.6889 51.82 66.3661 52.5051 66.7617L58.3604 70.1407C59.0452 70.5363 59.6007 71.4998 59.6007 72.2935C59.6007 73.0869 59.0452 73.4097 58.3604 73.0141ZM48.635 67.4011L42.7801 64.0221C42.0949 63.6265 41.5394 62.663 41.5394 61.8693C41.5394 61.0759 42.0949 60.7531 42.7801 61.1487L48.635 64.5278C49.3201 64.9233 49.8753 65.8872 49.8753 66.6806C49.8753 67.4739 49.3201 67.7967 48.635 67.4011ZM38.9093 61.7882L33.0541 58.4088C32.3689 58.0136 31.8137 57.0497 31.8137 56.2563C31.8137 55.463 32.3689 55.1402 33.0541 55.5354L38.9093 58.9148C39.5945 59.3101 40.1497 60.2739 40.1497 61.0673C40.1497 61.861 39.5945 62.1834 38.9093 61.7882Z" fill="#1D2540"></path>
		<path d="M54.3111 45.878L49.5462 43.127L43.9943 46.3324L48.7592 49.0835L51.1386 47.7098L48.5355 46.2068" stroke="white" stroke-linecap="round" stroke-linejoin="round"></path>
		<path d="M51.1484 50.802C50.9093 50.9401 50.8274 51.2459 50.9654 51.485C51.1035 51.7242 51.4093 51.8061 51.6484 51.668L51.1484 50.802ZM57.2147 47.877L57.4648 47.4439C57.3101 47.3546 57.1195 47.3546 56.9647 47.4439L57.2147 47.877ZM61.9797 50.628L62.2297 51.0611C62.3844 50.9717 62.4797 50.8067 62.4797 50.628C62.4797 50.4494 62.3844 50.2843 62.2297 50.195L61.9797 50.628ZM58.8072 52.4598L58.5572 52.8928C58.7119 52.9821 58.9025 52.9821 59.0572 52.8928L58.8072 52.4598ZM51.6484 51.668L57.4648 48.31L56.9647 47.4439L51.1484 50.802L51.6484 51.668ZM56.9647 48.31L61.7297 51.0611L62.2297 50.195L57.4648 47.4439L56.9647 48.31ZM61.7297 50.195L58.5572 52.0267L59.0572 52.8928L62.2297 51.0611L61.7297 50.195ZM59.0572 52.0267L54.4687 49.3775L53.9687 50.2436L58.5572 52.8928L59.0572 52.0267Z" fill="white"></path>
		<path d="M65.1477 51.8833L59.3314 55.2415L64.1847 58.0435L70.184 54.4652" stroke="white" stroke-linecap="round" stroke-linejoin="round"></path>
	</g>
	<defs>
		<linearGradient id="paint0_linear_4289_196097" x1="77.9184" y1="75.8012" x2="77.9184" y2="156.032" gradientUnits="userSpaceOnUse">
			<stop stop-color="#13151E" stop-opacity="0"></stop>
			<stop offset="1" stop-color="#131532"></stop>
		</linearGradient>
		<linearGradient id="paint1_linear_4289_196097" x1="8.00439" y1="77.36" x2="147.841" y2="77.36" gradientUnits="userSpaceOnUse">
			<stop offset="0.48" stop-color="#D2D8E6"></stop>
			<stop offset="0.52" stop-color="#E0E4EF"></stop>
		</linearGradient>
		<linearGradient id="paint2_linear_4289_196097" x1="8.06201" y1="77.3409" x2="147.899" y2="77.3409" gradientUnits="userSpaceOnUse">
			<stop stop-color="#BBC1D4" stop-opacity="0"></stop>
			<stop offset="0.35" stop-color="#BBC1D4" stop-opacity="0.7"></stop>
			<stop offset="1" stop-color="#BBC1D4" stop-opacity="0"></stop>
		</linearGradient>
		<linearGradient id="paint3_linear_4289_196097" x1="81.2708" y1="70.3965" x2="147.992" y2="70.3965" gradientUnits="userSpaceOnUse">
			<stop stop-color="#1D53DA"></stop>
			<stop offset="1" stop-color="#3F75FC"></stop>
		</linearGradient>
		<linearGradient id="paint4_linear_4289_196097" x1="181.201" y1="43.3472" x2="98.6138" y2="67.7938" gradientUnits="userSpaceOnUse">
			<stop stop-color="#00BAFF"></stop>
			<stop offset="1" stop-color="#0397F6"></stop>
		</linearGradient>
		<linearGradient id="paint5_linear_4289_196097" x1="13.4275" y1="49.3161" x2="142.998" y2="49.3161" gradientUnits="userSpaceOnUse">
			<stop offset="0.01" stop-color="#353D6C"></stop>
			<stop offset="1" stop-color="#575F8E"></stop>
		</linearGradient>
		<linearGradient id="paint6_linear_4289_196097" x1="13.4275" y1="49.3161" x2="142.998" y2="49.3161" gradientUnits="userSpaceOnUse">
			<stop offset="0.01" stop-color="#353D6C"></stop>
			<stop offset="1" stop-color="#575F8E"></stop>
		</linearGradient>
		<linearGradient id="paint7_linear_4289_196097" x1="13.4275" y1="37.4147" x2="143.005" y2="37.4147" gradientUnits="userSpaceOnUse">
			<stop offset="0.00513965" stop-color="#3F4B75"></stop>
			<stop offset="1" stop-color="#636F99"></stop>
		</linearGradient>
		<radialGradient id="paint8_radial_4289_196097" cx="0" cy="0" r="1" gradientUnits="userSpaceOnUse" gradientTransform="translate(87.1771 31.3544) rotate(90) scale(11.1742 18.5172)">
			<stop offset="0.708333" stop-color="#1D2540"></stop>
			<stop offset="1" stop-color="#1D2540" stop-opacity="0"></stop>
		</radialGradient>
		<linearGradient id="paint9_linear_4289_196097" x1="76.3221" y1="31.3541" x2="97.7553" y2="31.3541" gradientUnits="userSpaceOnUse">
			<stop stop-color="#1D53DA"></stop>
			<stop offset="1" stop-color="#3F75FC"></stop>
		</linearGradient>
		<linearGradient id="paint10_linear_4289_196097" x1="76.3221" y1="30.7154" x2="97.7209" y2="30.7154" gradientUnits="userSpaceOnUse">
			<stop stop-color="#0397F6"></stop>
			<stop offset="1" stop-color="#00BAFF"></stop>
		</linearGradient>
		<linearGradient id="paint11_linear_4289_196097" x1="13.4275" y1="63.8348" x2="85.3881" y2="63.8348" gradientUnits="userSpaceOnUse">
			<stop stop-color="#5B6791"></stop>
			<stop offset="1" stop-color="#69759F"></stop>
		</linearGradient>
		<linearGradient id="paint12_linear_4289_196097" x1="8" y1="46.1618" x2="13.4275" y2="46.1618" gradientUnits="userSpaceOnUse">
			<stop stop-color="#5B6791"></stop>
			<stop offset="1" stop-color="#69759F"></stop>
		</linearGradient>
		<clipPath id="clip0_4289_196097">
			<rect width="156" height="156" fill="white"></rect>
		</clipPath>
	</defs>
</svg>