<svg width="34" height="35" fill="none" xmlns="http://www.w3.org/2000/svg"><g clip-path="url(#clip0_2302_35077)" stroke-linecap="round" stroke-linejoin="round"><path d="M1.5 24.52l15 8.693 15-8.692-5.928-2.834-9.072 5.057-8.997-5.056L1.5 24.52z" fill="url(#paint0_linear_2302_35077)" stroke="url(#paint1_linear_2302_35077)"/><path d="M27.106 17.232L31.5 19.52l-15 8.5-15-8.5 4.2-2.323 10.8 6.023 10.606-5.988z" fill="#007CFC" stroke="#007CFC"/><path d="M30.196 7.095l-1.276.733m-1.135-2.181l-1.276.734m-1.136-2.1l-1.276.734m-1.136-2.101l-1.276.734m-1.055-2.1l-1.276.733-.287.165M2.482 7.095l1.277.733m1.135-2.181l1.276.734m1.136-2.1l1.276.734m1.135-2.101l1.276.734m1.056-2.1l1.276.733.286.165" stroke="#1062FE"/><path d="M31.5 9.52v5l-15.03 8.526L1.5 14.521v-5" stroke="#393D45"/><path d="M1.5 9.52l14.97 8.5 15.03-8.5-15.03-8.374L1.5 9.52z" stroke="#393D45"/><path d="M21.434 20.535l-2.553-1.468m4.964.02l-2.552-1.467m4.964.101l-2.552-1.467m4.964.1l-2.553-1.467m4.884.101l-2.552-1.467m-16.882 7.014l2.553-1.468m-4.964.02l2.552-1.467m-4.964.101l2.552-1.467m-4.964.1l2.553-1.467M2 14.988l2.552-1.467" stroke="#1062FE"/><path d="M16.55 13.238L9.96 9.379l6.591-3.858 6.672 3.858-6.672 3.859z" stroke="#007CFC"/></g><defs><linearGradient id="paint0_linear_2302_35077" x1="1.995" y1="27.441" x2="30.995" y2="27.456" gradientUnits="userSpaceOnUse"><stop stop-color="#B2CFFD"/><stop offset="1" stop-color="#D3E3FE"/></linearGradient><linearGradient id="paint1_linear_2302_35077" x1="1.623" y1="27.441" x2="31.367" y2="27.457" gradientUnits="userSpaceOnUse"><stop stop-color="#B2CFFD"/><stop offset="1" stop-color="#D3E3FE"/></linearGradient><clipPath id="clip0_2302_35077"><path fill="#fff" transform="translate(0 .02)" d="M0 0h34v34H0z"/></clipPath></defs></svg>