<svg width="34" height="35" fill="none" xmlns="http://www.w3.org/2000/svg"><g clip-path="url(#clip0_2302_35592)" stroke-linejoin="round"><path d="M3.188 24.907L17 32.913l13.813-7.934-4.936-2.84L17 27.52l-9-5.381-4.813 2.768z" fill="url(#paint0_linear_2302_35592)" stroke="url(#paint1_linear_2302_35592)" stroke-miterlimit="10" stroke-linecap="round"/><path d="M30.82 16.864L17.005 24.52 3.19 16.677v4.784l13.815 7.894 13.815-7.894v-4.597z" fill="#1062FE" stroke="#1062FE"/><path d="M17 24.558L3.187 16.554 5 15.52l12 7 12-7 1.813 1.104L17 24.558z" fill="#007CFC" stroke="#007CFC" stroke-linecap="round"/><path d="M25 22.82l4-2.3" stroke="#fff" stroke-linecap="round"/><path d="M30.813 8.766v5.25L17 22.02 3.187 14.016v-5.32" stroke="#393D45" stroke-linecap="round"/><path d="M25 14.62l4-2.2" stroke="#007CFC" stroke-linecap="round"/><path d="M3.188 8.553L17 16.558l13.813-7.934L17 .62 3.187 8.553z" stroke="#393D45" stroke-linecap="round"/></g><defs><linearGradient id="paint0_linear_2302_35592" x1="3.182" y1="27.413" x2="30.805" y2="27.429" gradientUnits="userSpaceOnUse"><stop stop-color="#B2CFFD"/><stop offset="1" stop-color="#D3E3FE"/></linearGradient><linearGradient id="paint1_linear_2302_35592" x1="2.828" y1="27.413" x2="31.159" y2="27.429" gradientUnits="userSpaceOnUse"><stop stop-color="#B2CFFD"/><stop offset="1" stop-color="#D3E3FE"/></linearGradient><clipPath id="clip0_2302_35592"><path fill="#fff" transform="translate(0 .02)" d="M0 0h34v34H0z"/></clipPath></defs></svg>