<svg viewBox="0 0 72 72" fill="none" xmlns="http://www.w3.org/2000/svg">
<path fill-rule="evenodd" clip-rule="evenodd" d="M30.8179 33.5987L33.1974 35.9642L30.8179 38.3297H14.0705V46.2117L3.85714 35.9642L14.0705 25.8894V33.5986L30.8179 33.5987V33.5987Z" fill="#932279"/>
<path fill-rule="evenodd" clip-rule="evenodd" d="M38.4016 30.8181L36.036 33.1976L33.6705 30.8181V14.0706H25.7886L36.036 3.85718L46.1108 14.0706H38.4016L38.4016 30.8181V30.8181Z" fill="#EFA724"/>
<path fill-rule="evenodd" clip-rule="evenodd" d="M41.182 38.4002L38.8026 36.0347L41.182 33.6692H57.9295V25.7872L68.1429 36.0347L57.9295 46.1095V38.4003L41.182 38.4002V38.4002Z" fill="#262577"/>
<path fill-rule="evenodd" clip-rule="evenodd" d="M33.5972 41.1807L35.9628 38.8012L38.3283 41.1807V57.9282H46.2102L35.9628 68.1416L25.888 57.9282H33.5972L33.5972 41.1807V41.1807Z" fill="#9CCD2A"/>
<path d="M13.4708 13.4724H33.82V33.8217H13.4708V13.4724Z" fill="#9CCD2A" stroke="white"/>
<path d="M38.1805 13.4724H58.5296V33.8217H38.1805V13.4724Z" fill="#932279" stroke="white"/>
<path d="M38.1805 38.1847H58.5298V58.534H38.1805V38.1847Z" fill="#EFA724" stroke="white"/>
<path d="M13.4708 38.1847H33.82V58.534H13.4708V38.1847Z" fill="#262577" stroke="white"/>
<path d="M4.13776 36.0001L18.5269 21.611L32.9159 36.0001L18.5269 50.3893L4.13776 36.0001Z" stroke="white"/>
<path d="M21.6109 18.5248L36 4.13565L50.389 18.5248L36 32.9139L21.6109 18.5248Z" stroke="white"/>
<path d="M39.0824 35.9965L53.4715 21.6073L67.8605 35.9965L53.4715 50.3856L39.0824 35.9965Z" stroke="white"/>
<path d="M21.6107 53.474L35.9998 39.0849L50.3889 53.474L35.9998 67.8631L21.6107 53.474Z" stroke="white"/>
</svg>
