<?xml version="1.0" encoding="UTF-8"?>
<svg id="Layer_1" xmlns="http://www.w3.org/2000/svg" viewBox="0 0 48 48">
  <defs/>
  <path fill="#0bbac7" class="cls-1" d="M27.39 13.69H26v1.39h1.39v-1.39ZM23.93 25.52h-2.79v1.39h2.79v-1.39ZM36.49 25.52H33.7v1.39h2.79v-1.39Z"/>
  <path fill="#0bbac7" class="cls-1" d="M46.25 34.55v-8.36h-1.39v8.36h-1.39V20.62h-2.8V9.48H7.19v11.14h-2.8v13.93H3v-8.36H1.6v8.36H.22v2.73h2.79v1.39H7.2v-1.39h1.39v1.39h4.19v-1.39H35.1v1.39h4.19v-1.39h1.39v1.39h4.19v-1.39h2.79v-2.73h-1.39ZM31.58 10.9h6.98v2.79h-2.07v5.57H33.7v-5.57h-2.12V10.9ZM9.26 16.47V10.9h5.58v2.06h-2.79v1.39h2.79v2.12h-2.79v2.79H9.26v-2.78Zm6.31 9.05v1.39h-4.19v2.79h4.19v4.18H7.19V22.74h8.37v2.79Zm.67-6.26V10.9h2.79v5.57h2.79v2.79h-5.59Zm11.88 6.26v8.36h-4.19V29.7h-2.79v4.18h-4.19v-9.75h1.39v-1.39h8.37v1.39h1.39v1.39Zm-.71-6.26v-2.79h-1.39v2.79h-2.79V12.3h1.39v-1.39h4.19v1.39h1.39v6.96h-2.78Zm13.28 6.26v4.18H39.3v1.39h1.39v2.79H36.5V31.1h-1.39v-1.39h-1.39v4.18h-4.19V22.75h11.15v2.78Z"/>
</svg>
