<?xml version="1.0" encoding="utf-8"?>
<!-- Generator: Adobe Illustrator 25.3.1, SVG Export Plug-In . SVG Version: 6.00 Build 0)  -->
<svg version="1.1" id="Warstwa_1" xmlns="http://www.w3.org/2000/svg" xmlns:xlink="http://www.w3.org/1999/xlink" x="0px" y="0px"
	 viewBox="0 0 72 72" enable-background="new 0 0 72 72" xml:space="preserve">
<g>
	<path id="path22" fill="#86DA2F" d="M61.2,39.8c2.4-0.3,4.5,1.4,4.8,3.8v0.3c0.2,2.5-1.6,4.8-4.1,5h-0.1c-2.5,0.3-4.7-1.5-5-4
		c-0.3-2.5,1.5-4.7,4-5c0.1,0,0.2,0,0.3,0L61.2,39.8z"/>
	<path id="path24" fill="#24C2FF" d="M30.1,60.7c-0.1-2.4,1.8-4.4,4.2-4.5c0,0,0.1,0,0.1,0l0,0c2.5,0.1,4.5,2.1,4.6,4.6
		c0,2.4-1.8,4.3-4.2,4.5c-2.4,0.2-4.5-1.6-4.7-4c0,0,0,0,0,0C30.1,61.2,30.1,60.9,30.1,60.7z"/>
	<path id="path26" fill="#FFCB12" d="M37.1,32c-0.4,0.2-0.6-0.1-0.7-0.4c-3.6-6.8-2.6-15.3,3.8-20.5c1.7-1.4,4.8-1.7,6.2-0.3
		c0.5,0.5,0.8,1.1,0.8,1.8c0.1,1.5,0.6,2.9,1.5,4.1c1,1.2,2.5,1.8,4,1.6c1.4,0,2.8-0.2,3.6,1.4c0.5,0.9,0.3,4.4-0.5,5
		c-0.4,0.3-0.7,0.1-1,0c-2.2-0.8-4.7-1-7-0.5c-0.8,0.1-1.2-0.1-1.2-1c0-1.5-0.5-2.9-1.2-4.1c-1.5-2.7-4.2-2.8-6-0.3
		c-1.5,2-1.9,4.4-2.3,6.7C37,27.7,36.9,29.9,37.1,32L37.1,32z"/>
	<path id="path28" fill="#86DA2F" d="M39.5,33.5c-0.2-0.2-0.1-0.6,0.1-0.7c0,0,0,0,0,0h0.1c5.6-5.4,14.3-5.8,20.5-1.1
		c1.7,1.4,2.8,4.2,1.9,5.9c-0.3,0.6-0.8,1-1.5,1.2c-1.4,0.5-2.6,1.3-3.5,2.5c-0.9,1.3-1.1,2.9-0.7,4.4c0.3,1.3,0.8,2.7-0.5,3.8
		c-0.7,0.7-4,1.3-4.9,0.7c-0.4-0.3-0.3-0.6-0.2-1c0.2-2.4-0.2-4.8-1.2-7c-0.3-0.8-0.2-1.2,0.6-1.4c1.4-0.4,2.6-1.1,3.6-2.1
		c2.2-2.1,1.7-4.7-1.2-5.9c-2.3-1-4.6-0.8-6.9-0.6C43.7,32.4,41.6,32.8,39.5,33.5z"/>
	<path id="path30" fill="#24C2FF" d="M38.3,36.1c0.3-0.3,0.5-0.2,0.8,0c6.5,3.9,9.8,11.7,6.9,19.3c-0.8,2-3.3,3.9-5.2,3.4
		c-0.6-0.2-1.2-0.5-1.6-1.1c-0.8-1.2-2-2.2-3.3-2.8c-1.5-0.5-3.1-0.2-4.4,0.6c-1.2,0.7-2.4,1.6-3.8,0.7c-0.9-0.5-2.4-3.5-2.1-4.5
		c0.2-0.4,0.6-0.4,1-0.4c2.4-0.4,4.5-1.5,6.3-3.1c0.4-0.4,1-0.4,1.4,0c0,0,0,0,0,0c0.1,0.1,0.1,0.2,0.2,0.2c0.8,1.2,1.8,2.2,3.1,2.8
		c2.6,1.5,5,0.2,5.3-2.8c0.3-2.5-0.6-4.6-1.4-6.8C40.5,39.7,39.5,37.8,38.3,36.1z"/>
	<path id="path32" fill="#0069DA" d="M35.1,36.7c-0.4,2-1.3,3.9-2.5,5.5c-3.5,5.3-8.7,7.5-15,6.9c-2.2-0.2-4-1.8-4.4-3.9
		c-0.1-0.7,0.1-1.4,0.6-2c0.7-0.8,1.3-1.8,1.6-2.8c0.5-2-0.2-4.1-1.8-5.4c-2.2-2.2-1.9-4.1,0.7-5.7c0.4-0.2,0.7-0.4,1.1-0.6
		c0.6-0.3,1.1-0.3,1.3,0.4c1,2.2,2.6,4,4.6,5.3c0.7,0.6,0.7,1,0.1,1.7c-1.2,1.3-1.9,2.9-2,4.6c-0.3,1.6,0.8,3.2,2.4,3.5
		c0.3,0,0.6,0,0.8,0c1.3-0.1,2.7-0.4,3.8-1.1c2.9-1.6,5.5-3.7,7.7-6.2C34.6,36.8,34.7,36.6,35.1,36.7z"/>
	<path id="path34" fill="#FF4649" d="M19,16c0.4,0,0.8,0.1,1.2,0.2c3.6,0.7,5.9-0.6,7.1-4c0.8-2.3,2.5-3,4.6-1.8
		c0.1,0,0.1,0.1,0.2,0.1c2.3,1.3,2.3,1.5,0.9,3.4c-1.1,1.5-1.8,3.3-2.1,5.2c-0.2,1.1-0.6,1.3-1.6,0.9c-1.6-0.6-3.3-0.6-4.9,0
		c-1.6,0.4-2.6,2.1-2.2,3.8c0,0.1,0.1,0.2,0.1,0.3c0.8,2.5,3,3.5,4.8,4.8c1.9,1.2,4,2.1,6.1,2.8c0.3,0.1,0.8,0.1,0.7,0.6
		c-0.1,0.3-0.5,0.3-0.9,0.3c-4.4,0.2-8.7-0.5-12.1-3.4c-3.3-2.7-5.6-5.9-5.2-10.4C16.1,17.3,17.4,16.1,19,16z"/>
	<path id="path36" fill="#0069DA" d="M10.9,43.6C8.4,43.8,6.2,42,6,39.5c-0.1-2.4,1.6-4.6,4-4.9c2.5-0.4,4.7,1.3,5.1,3.8l0,0
		C15.3,40.7,13.8,43.4,10.9,43.6z"/>
	<path id="path38" fill="#FFCB12" d="M52.2,8.6c2.5-0.1,4.7,1.7,5,4.2c0.3,2.5-1.5,4.8-4,5.1c-2.5,0.3-4.8-1.5-5.1-4
		c0-0.1,0-0.2,0-0.3l0,0C47.8,11,49.7,8.8,52.2,8.6C52.2,8.6,52.2,8.6,52.2,8.6L52.2,8.6z"/>
	<path id="path40" fill="#FF4649" d="M26.6,10.5c0.3,2.5-1.5,4.8-4,5.1c-2.4,0.3-4.6-1.3-5.1-3.7l0,0C17.2,9,18.8,7,21.5,6.6
		C23.9,6.4,26.1,8.1,26.6,10.5z"/>
</g>
</svg>
