<svg viewBox="0 0 72 72" fill="none" xmlns="http://www.w3.org/2000/svg">
<path d="M36.0028 6.42859C19.694 6.42859 6.42859 19.6262 6.42859 35.8476C6.42859 52.0708 19.6938 65.2665 36.0028 65.2665C52.3065 65.2665 65.5714 52.0697 65.5714 35.8476C65.5714 19.6254 52.3052 6.42859 36.0028 6.42859V6.42859Z" fill="#3C6EB4"/>
<path d="M36.0034 9.12805C31.2478 9.12805 27.2145 16.6956 25.7578 27.2139C25.7113 27.5522 25.6662 27.8947 25.6263 28.2393C25.4273 29.8946 25.2925 31.6159 25.2251 33.3878C25.1929 34.1987 25.1769 35.0182 25.1769 35.8482C25.1769 36.6774 25.1929 37.4986 25.2251 38.3078C25.2925 40.0794 25.4273 41.8018 25.6263 43.4571C27.8562 43.7443 30.2404 43.9392 32.7273 44.0317C33.8024 44.0717 34.8934 44.0955 36.0037 44.0955C37.1106 44.0955 38.2049 44.0714 39.2767 44.0317C41.7666 43.9392 44.1492 43.7443 46.381 43.4571C46.6265 43.4259 46.8681 43.3917 47.1127 43.3564C56.4004 42.0589 62.8614 39.1868 62.8614 35.8482C62.8612 21.0903 50.8353 9.12805 36.0034 9.12805V9.12805Z" fill="#DB3279"/>
<path d="M47.1112 28.3374C46.8418 27.9465 46.5529 27.572 46.245 27.2123C43.7806 24.3225 40.1097 22.4862 36.0024 22.4862C34.6709 22.4862 33.4852 24.5138 32.7261 27.6624C32.4245 28.9178 32.1903 30.3502 32.0395 31.9048C31.9207 33.1506 31.8566 34.4755 31.8566 35.8464C31.8566 37.2173 31.9207 38.5425 32.0395 39.7872C33.2926 39.9055 34.6225 39.969 36.0024 39.969C37.3807 39.969 38.7105 39.9055 39.9636 39.7872C42.7182 39.5271 45.0962 39.0002 46.7807 38.306C48.4443 37.6214 49.4288 36.7689 49.4288 35.8464C49.4286 33.063 48.5742 30.4778 47.1112 28.3374V28.3374Z" fill="white"/>
</svg>
