<svg viewBox="0 0 72 72" fill="none" xmlns="http://www.w3.org/2000/svg">
<path d="M39.8656 36.5311C38.8004 36.546 40.0672 37.08 41.4578 37.294C41.8419 36.9941 42.1905 36.6906 42.5011 36.3954C41.635 36.6076 40.7536 36.6123 39.8656 36.5311Z" fill="#A80030"/>
<path d="M45.5816 35.1074C46.2159 34.2319 46.6782 33.2733 46.8412 32.2822C46.699 32.9888 46.3155 33.5988 45.9545 34.2425C43.9633 35.4962 45.7671 33.498 45.9533 32.7387C43.8122 35.4334 45.6593 34.3546 45.5816 35.1074Z" fill="#A80030"/>
<path d="M47.6935 29.6197C47.8221 27.7015 47.3159 28.3079 47.1458 29.04C47.3444 29.1431 47.5014 30.3921 47.6935 29.6197Z" fill="#A80030"/>
<path d="M35.8263 3.40259C36.3947 3.50454 37.0545 3.58279 36.962 3.71853C37.5838 3.5822 37.7249 3.45653 35.8263 3.40259Z" fill="#A80030"/>
<path d="M36.9605 3.72021L36.5586 3.8032L36.9326 3.77001L36.9605 3.72021Z" fill="#A80030"/>
<path d="M54.6866 30.3464C54.75 32.069 54.1827 32.9048 53.6712 34.3844L52.7506 34.8444C51.9972 36.3073 52.8235 35.7733 52.2841 36.9369C51.108 37.9825 48.715 40.209 47.9491 40.4123C47.3901 40.3999 48.3279 39.7525 48.4506 39.4988C46.8762 40.5801 47.1874 41.1218 44.7796 41.7786L44.709 41.6221C38.7706 44.4159 30.5216 38.8794 30.6301 31.3251C30.5666 31.8046 30.4499 31.6849 30.3183 31.8787C30.0118 27.9919 32.1132 24.0879 35.6574 22.494C39.1239 20.7779 43.188 21.4821 45.6711 23.7963C44.3071 22.0097 41.5922 20.1158 38.3746 20.293C35.2229 20.3428 32.2744 22.3458 31.2904 24.5201C29.6757 25.5367 29.4884 28.4389 28.7848 28.97C27.8381 35.9274 30.5655 38.9333 35.179 42.4692C35.9052 42.9589 35.3835 43.0329 35.4819 43.4058C33.949 42.688 32.5453 41.6044 31.3912 40.2777C32.0035 41.174 32.6645 42.0454 33.5187 42.73C32.0735 42.2404 30.1428 39.2279 29.5791 39.1052C32.0705 43.5659 39.687 46.9281 43.6752 45.26C41.8299 45.3282 39.4855 45.2979 37.412 44.5315C36.5412 44.0833 35.3568 43.1551 35.5685 42.9814C41.0113 45.0146 46.6337 44.5214 51.3433 40.746C52.5413 39.813 53.8502 38.2256 54.2284 38.2036C53.6587 39.0602 54.3256 38.6156 53.8881 39.372C55.0819 37.4467 53.3694 38.5883 55.1223 36.0471L55.7696 36.9387C55.5289 35.3405 57.7542 33.3998 57.5283 30.8722C58.0387 30.0992 58.098 31.7039 57.5562 33.4822C58.3078 31.5094 57.7542 31.1923 57.9474 29.5646C58.1561 30.1117 58.4299 30.6932 58.5704 31.2706C58.0808 29.3642 59.0731 28.0601 59.3185 26.9522C59.0766 26.8449 58.5627 27.7951 58.4453 25.5432C58.4625 24.5651 58.7174 25.0304 58.8158 24.7898C58.6238 24.6795 58.1199 23.9297 57.8134 22.4916C58.0357 22.1537 58.4074 23.3677 58.7097 23.4175C58.5153 22.274 58.1804 21.4021 58.1667 20.5248C57.2835 18.6789 57.8543 20.7708 57.1377 19.7322C56.1975 16.7998 57.9178 19.0517 58.034 17.7192C59.459 19.7838 60.2717 22.9836 60.6445 24.309C60.36 22.6931 59.9 21.1276 59.3387 19.6131C59.7714 19.7951 58.6416 16.2882 59.9012 18.6107C58.5556 13.6599 54.1424 9.03386 50.0825 6.86313C50.5792 7.31778 51.2064 7.88862 50.9811 7.97813C48.9622 6.77599 49.3172 6.68233 49.028 6.17432C47.383 5.50508 47.2751 6.22827 46.1856 6.17551C43.0854 4.53116 42.4879 4.70603 39.6349 3.67579L39.7647 4.28219C37.7107 3.59813 37.3717 4.54183 35.1517 4.28456C35.0166 4.17905 35.8631 3.90282 36.5596 3.80145C34.5738 4.06346 34.6669 3.41022 32.7237 3.87377C33.2027 3.53767 33.7089 3.31538 34.2199 3.02966C32.6004 3.12806 30.3538 3.97217 31.0474 3.20453C28.406 4.38296 23.7148 6.03739 21.0823 8.5057L20.9993 7.95264C19.793 9.40079 15.739 12.2775 15.416 14.153L15.0935 14.2283C14.4657 15.2912 14.0597 16.4957 13.5618 17.5894C12.7408 18.9883 12.3584 18.1276 12.4752 18.3469C10.8605 21.6208 10.0585 24.3719 9.36552 26.628C9.8593 27.366 9.37738 31.0708 9.5641 34.0358C8.75319 48.6797 19.8416 62.898 31.962 66.1807C33.7386 66.8162 36.3806 66.7919 38.6278 66.8571C35.9763 66.0989 35.6337 66.4552 33.051 65.5548C31.1879 64.6775 30.7794 63.6757 29.4599 62.5304L29.9822 63.4534C27.3941 62.5376 28.4771 62.32 26.3716 61.6531L26.9294 60.9246C26.0906 60.8612 24.7077 59.5109 24.3295 58.7634L23.4119 58.7995C22.3093 57.4391 21.7219 56.4587 21.7646 55.6993L21.4682 56.2275C21.1321 55.6507 17.4118 51.1255 19.3419 52.1788C18.9833 51.851 18.5067 51.6453 17.9898 50.7064L18.3828 50.2571C17.4539 49.062 16.6732 47.5303 16.7325 47.0199C17.2281 47.6892 17.5719 47.8143 17.9121 47.9287C15.5665 42.1088 15.4349 47.608 13.6584 42.0045L14.0342 41.9743C13.7461 41.5403 13.5712 41.0691 13.3395 40.6067L13.5031 38.9766C11.8143 37.024 13.0306 30.6742 13.2743 27.1917C13.4432 25.7756 14.6839 24.2681 15.6276 21.9041L15.0526 21.8052C16.1516 19.8881 21.3277 14.1062 23.7249 14.4038C24.8861 12.945 23.4943 14.3985 23.2672 14.0309C25.8179 11.3913 26.62 12.1661 28.3414 11.6913C30.1979 10.5893 26.748 12.121 27.6283 11.271C30.8375 10.4512 29.9027 9.40731 34.0895 8.99118C34.5311 9.24252 33.0646 9.37945 32.6965 9.70547C35.3705 8.39722 41.1583 8.6948 44.9177 10.4316C49.2799 12.4702 54.1809 18.4963 54.3742 24.1662L54.5941 24.2254C54.4827 26.4792 54.9391 29.0856 54.1483 31.4798L54.6866 30.3464Z" fill="#A80030"/>
<path d="M28.2373 37.9963L28.088 38.7432C28.788 39.694 29.3434 40.7243 30.2373 41.4676C29.5942 40.2121 29.1164 39.6934 28.2373 37.9963Z" fill="#A80030"/>
<path d="M29.8947 37.9353C29.5242 37.5257 29.3049 37.0325 29.0595 36.5411C29.2942 37.4048 29.775 38.147 30.2225 38.9016L29.8947 37.9353Z" fill="#A80030"/>
<path d="M59.1789 31.5728L59.0224 31.9652C58.7355 34.0031 58.116 36.0197 57.1664 37.8893C58.2156 35.9166 58.8944 33.7589 59.1789 31.5728Z" fill="#A80030"/>
<path d="M36.0361 2.88973C36.7563 2.62595 37.8067 2.74509 38.5708 2.57141C37.5749 2.65499 36.5838 2.70478 35.6051 2.83105L36.0361 2.88973Z" fill="#A80030"/>
<path d="M10.7503 16.3301C10.9162 17.8665 9.59435 18.4629 11.0431 17.4498C11.8196 15.7006 10.7396 16.9667 10.7503 16.3301Z" fill="#A80030"/>
<path d="M9.04867 23.4467C9.3824 22.4224 9.44287 21.8071 9.57031 21.2144C8.64796 22.3934 9.14589 22.6447 9.04867 23.4467Z" fill="#A80030"/>
</svg>
