<?xml version="1.0" encoding="UTF-8"?>
<svg xmlns="http://www.w3.org/2000/svg" viewBox="0 0 55.42 48">
  <defs/>
  <g>
    <g>
      <g>
        <path fill="#0d597f" class="cls-1" d="M20.13 29.89v-5.84l-4.2 4.21c.45.32.88.57 1.28.78.4.21.78.37 1.13.5.35.12.68.21.97.26.3.05.57.08.82.08m21.49-.49s.05.04.12.09c.08.05.19.11.33.17.15.06.33.12.55.17.22.05.48.08.78.08.25 0 .53-.02.83-.07.3-.05.63-.14.98-.26s.74-.29 1.14-.5c.41-.21.84-.47 1.3-.8l-3.19-3.13-10.57-10.61-4.64 4.64-6.26-6.45L7.28 28.25c.46.32.89.58 1.3.8.41.21.79.38 1.14.5.35.12.68.21.98.26.3.05.58.07.83.07.3 0 .56-.03.78-.08.22-.05.41-.11.55-.17.15-.06.26-.12.33-.17.08-.05.12-.08.12-.09l7.09-7.09 2.54-2.43 7.02 7.02 2.45 2.52s.05.04.12.09c.08.05.19.11.33.17.15.06.33.12.55.17.22.05.48.08.78.08.25 0 .53-.02.83-.07.3-.05.63-.14.98-.26s.74-.29 1.14-.5c.41-.21.84-.47 1.3-.8l-5.63-5.52 1.05-1.05 4.88 4.88 2.84 2.82M41.57 0l13.85 24-13.85 24H13.85L0 24 13.85 0h27.71Z"/>
      </g>
      <g>
        <path fill="#0d597f" class="cls-1" d="m32.92 22.83-3.69-3.68.26-.26 3.72 3.68-.29.27Z"/>
      </g>
    </g>
  </g>
</svg>
