<svg width="40" height="41" fill="none" xmlns="http://www.w3.org/2000/svg"><path fill-rule="evenodd" clip-rule="evenodd" d="M33.584 26.28c-1 .583-13.584 3-13.584 3L6.917 25.946l-5.083 2.917 9.916 5.667c1-.584 2.75-.584 3.75 0 1.084.583 1.084 1.583 0 2.166l4.584 2.584 18.25-10.417-4.75-2.583z" fill="url(#paint0_linear_2302_35197)" stroke="url(#paint1_linear_2302_35197)" stroke-miterlimit="10" stroke-linecap="round" stroke-linejoin="round"/><path fill-rule="evenodd" clip-rule="evenodd" d="M20 27.08l-4.117-2.942s1.176-.588-.589-1.765c-1.764-1.176-3.544 0-3.53.354l-5.293-3.105-4.638 2.693 9.917 5.666c1-.583 2.75-.583 3.75 0 1.084.584 1.084 1.584 0 2.167l4.584 2.583 18.25-10.5-4.772-2.609L20 27.08z" fill="#007CFC" stroke="#007CFC" stroke-linecap="round" stroke-linejoin="round"/><path fill-rule="evenodd" clip-rule="evenodd" d="M22.667 14.52L18.5 16.936 8.334 11.103l4.25-2.416 10.083 5.833zm5.833-3.416l-4.25 2.5L14.167 7.77l4.167-2.416 10.166 5.75z" fill="#007CFC" stroke="#007CFC" stroke-width=".448" stroke-linecap="round" stroke-linejoin="round"/><path d="M38.235 12.726v3.813L20.083 26.936l-4.2-2.75c1.083-.583.7-1.416-.383-2-1-.583-2.75-.583-3.75 0L1.765 16.54v-3.813" stroke="#393D45" stroke-miterlimit="10" stroke-linecap="round" stroke-linejoin="round"/><path clip-rule="evenodd" d="M33.583 9.687c-1 .583-2.75.583-3.75 0-1.083-.583-1.083-1.583 0-2.167L20 1.854 1.765 12.374l9.985 5.646c1-.583 2.75-.583 3.75 0 1.083.584 1.466 1.417.382 2l4.201 2.75 18.152-10.397-4.652-2.686z" stroke="#393D45" stroke-miterlimit="10" stroke-linecap="round" stroke-linejoin="round"/><defs><linearGradient id="paint0_linear_2302_35197" x1="1.8" y1="32.682" x2="38.333" y2="32.682" gradientUnits="userSpaceOnUse"><stop stop-color="#B2CFFD"/><stop offset="1" stop-color="#D3E3FE"/></linearGradient><linearGradient id="paint1_linear_2302_35197" x1="1.384" y1="32.682" x2="38.75" y2="32.682" gradientUnits="userSpaceOnUse"><stop stop-color="#B2CFFD"/><stop offset="1" stop-color="#D3E3FE"/></linearGradient></defs></svg>