<svg class="svg-product" width="170" height="170" viewBox="0 0 170 170" fill="none" xmlns="http://www.w3.org/2000/svg">
                            
                                <g class="svg-illustration-shadow animation-element" data-animation-shadow="">
                                    <path opacity="0.08" class="high-frequency__shadow" d="M85.0001 82.0128C83.9551 82.0128 82.9101 82.2218 82.0045 82.7094C81.2382 83.1274 10.7383 123.602 9.97197 124.02C9.27533 124.299 8.78768 124.995 8.71802 125.762C8.78768 126.528 9.27533 127.155 9.97197 127.503C10.7383 127.921 81.2382 168.396 82.0045 168.814C83.8854 169.789 86.1147 169.789 87.9956 168.814C88.7619 168.396 159.262 127.921 160.028 127.503C160.725 127.225 161.212 126.528 161.282 125.762C161.212 124.995 160.725 124.368 160.028 124.02C159.262 123.602 88.7619 83.1274 87.9956 82.7094C87.09 82.2914 86.045 82.0128 85.0001 82.0128Z" fill="url(#paint0_linear_2413_156783)"></path>
                                </g>
                                <g class="svg-illustration-bottom animation-element" data-animation-bottom="">
                                    <path d="M161.212 74.3445C161.212 74.4141 161.212 74.4141 161.212 74.4837V94.676C161.143 95.4419 160.655 96.0686 159.959 96.4167C159.193 96.8345 88.7292 137.289 87.9633 137.706C86.0834 138.681 83.8552 138.681 81.9753 137.706C81.2093 137.289 10.7453 96.8345 9.97939 96.4167C9.2831 96.1382 8.7957 95.4419 8.72607 94.676V74.4141V74.066C8.71803 73.5577 9.42236 72.9519 9.97939 72.6734C10.7453 72.2556 81.2093 31.1748 81.9753 30.757C83.8552 29.7822 86.0834 29.7822 87.9633 30.757C88.7292 31.1748 159.193 72.2556 159.959 72.6734C160.516 72.9519 161.004 73.4393 161.212 74.066V74.3445Z" fill="url(#paint1_linear_2413_156783)"></path>
                                    <path d="M161.204 74.3445C161.204 74.4141 161.204 74.4141 161.204 74.4837V94.676C161.135 95.4419 160.647 96.0686 159.951 96.4167C159.185 96.8345 88.7211 137.289 87.9552 137.706C86.0753 138.681 83.8471 138.681 81.9672 137.706C81.2013 137.289 10.7372 96.8345 9.97133 96.4167C9.27504 96.1382 8.78765 95.4419 8.71802 94.676V74.4141V74.066H8.78765C8.99653 73.4393 9.4143 72.9519 9.97133 72.6734C10.7372 72.2556 81.2013 31.1748 81.9672 30.757C83.8471 29.7822 86.0753 29.7822 87.9552 30.757C88.7211 31.1748 159.185 72.2556 159.951 72.6734C160.508 72.9519 161.282 73.5577 161.204 74.043V74.066V74.3445Z" fill="url(#paint2_linear_2413_156783)"></path>
                                    <path d="M159.959 75.8763C159.193 76.2941 88.7292 117.027 87.9633 117.514C86.0834 118.489 83.8553 118.489 81.9753 117.514C81.2094 117.096 10.7453 76.3637 9.97942 75.8763C9.00462 75.5282 8.51722 74.4837 8.79574 73.5786C9.00462 73.0215 9.4224 72.6038 9.97942 72.3949C10.7453 71.9771 81.2094 31.2444 81.9753 30.757C83.8553 29.7822 86.0834 29.7822 87.9633 30.757C88.7292 31.1748 159.193 71.9075 159.959 72.3949C160.934 72.743 161.456 73.7874 161.108 74.6926C160.969 75.18 160.516 75.6674 159.959 75.8763ZM154.946 72.2556C154.25 71.8378 88.1026 33.3333 87.3367 32.9155C85.596 32.0104 83.4375 32.0104 81.6968 32.9155C81.0005 33.3333 14.8534 71.8378 14.0875 72.2556C13.1823 72.6038 12.6949 73.5786 13.0431 74.4837C13.252 74.9711 13.6001 75.3889 14.0875 75.5282C14.7838 75.9459 81.0005 114.45 81.6968 114.868C83.4375 115.773 85.596 115.773 87.3367 114.868C88.033 114.45 154.25 75.9459 154.946 75.5282C155.851 75.2496 156.339 74.2052 155.99 73.3C155.851 72.8823 155.433 72.5341 154.946 72.2556Z" fill="white" fill-opacity="0.5"></path>
                                    <path d="M81.7664 114.729C81.2094 114.451 46.3951 94.1886 26.8992 82.9088C47.9966 70.7238 81.4183 51.4368 81.9057 51.0886C83.7856 50.1138 86.0137 50.1138 87.8937 51.0886C88.4507 51.3671 121.385 70.4453 142.552 82.6999C123.126 93.9798 87.8937 114.451 87.3367 114.729C85.6656 115.634 83.5768 115.634 81.7664 114.729Z" fill="#333C5E"></path>
                                    <path opacity="0.32" fill-rule="evenodd" clip-rule="evenodd" d="M16.9462 87.4074C17.158 87.0544 17.616 86.9399 17.969 87.1517L21.6965 89.3882C22.0495 89.6 22.164 90.058 21.9522 90.411C21.7403 90.7641 21.2824 90.8786 20.9294 90.6667L17.2019 88.4302C16.8488 88.2184 16.7344 87.7605 16.9462 87.4074Z" fill="#142149"></path>
                                    <path opacity="0.48" fill-rule="evenodd" clip-rule="evenodd" d="M16.9462 91.1349C17.158 90.7818 17.616 90.6673 17.969 90.8792L21.6965 93.1157C22.0495 93.3275 22.164 93.7854 21.9522 94.1385C21.7403 94.4915 21.2824 94.606 20.9294 94.3942L17.2019 92.1577C16.8488 91.9459 16.7344 91.4879 16.9462 91.1349Z" fill="#142149"></path>
                                    <path opacity="0.48" fill-rule="evenodd" clip-rule="evenodd" d="M23.656 91.1344C23.8681 90.7815 24.3261 90.6674 24.679 90.8795L28.3995 93.116C28.7524 93.3281 28.8665 93.7861 28.6543 94.139C28.4422 94.4919 27.9842 94.606 27.6313 94.3939L23.9108 92.1574C23.558 91.9453 23.4439 91.4873 23.656 91.1344Z" fill="#142149"></path>
                                    <path opacity="0.32" fill-rule="evenodd" clip-rule="evenodd" d="M23.656 94.8548C23.8681 94.502 24.3261 94.3879 24.679 94.6L28.3995 96.8365C28.7524 97.0486 28.8665 97.5066 28.6543 97.8595C28.4422 98.2124 27.9842 98.3265 27.6313 98.1143L23.9108 95.8779C23.558 95.6657 23.4439 95.2077 23.656 94.8548Z" fill="#142149"></path>
                                    <path opacity="0.32" fill-rule="evenodd" clip-rule="evenodd" d="M146.472 90.3587C146.859 90.3587 147.172 90.6722 147.172 91.0589V95.936C147.172 96.3227 146.859 96.6362 146.472 96.6362C146.085 96.6362 145.772 96.3227 145.772 95.936V91.0589C145.772 90.6722 146.085 90.3587 146.472 90.3587Z" fill="#142149"></path>
                                    <path opacity="0.32" fill-rule="evenodd" clip-rule="evenodd" d="M149.273 88.61C149.659 88.61 149.973 88.9234 149.973 89.3102V94.1872C149.973 94.5739 149.659 94.8874 149.273 94.8874C148.886 94.8874 148.573 94.5739 148.573 94.1872V89.3102C148.573 88.9234 148.886 88.61 149.273 88.61Z" fill="#142149"></path>
                                    <path opacity="0.32" fill-rule="evenodd" clip-rule="evenodd" d="M152.073 86.8612C152.46 86.8612 152.774 87.1747 152.774 87.5614V92.8147C152.774 93.2014 152.46 93.5149 152.073 93.5149C151.687 93.5149 151.373 93.2014 151.373 92.8147V87.5614C151.373 87.1747 151.687 86.8612 152.073 86.8612Z" fill="#142149"></path>
                                    <path opacity="0.32" fill-rule="evenodd" clip-rule="evenodd" d="M154.875 85.4608C155.261 85.4608 155.575 85.7743 155.575 86.161V91.038C155.575 91.4247 155.261 91.7382 154.875 91.7382C154.488 91.7382 154.174 91.4247 154.174 91.038V86.161C154.174 85.7743 154.488 85.4608 154.875 85.4608Z" fill="#142149"></path>
                                    <path opacity="0.32" fill-rule="evenodd" clip-rule="evenodd" d="M48.0017 107.646C48.1988 107.302 48.6374 107.184 48.9812 107.381L75.8955 122.813C76.2394 123.01 76.3583 123.449 76.1611 123.793C75.964 124.136 75.5254 124.255 75.1816 124.058L48.2673 108.626C47.9235 108.429 47.8046 107.99 48.0017 107.646Z" fill="#142149"></path>
                                    <path d="M26.4789 58.6353H26.1318V66.9651H26.4789V58.6353Z" fill="url(#paint3_linear_2413_156783)"></path>
                                    <path d="M37.5851 79.4591H37.238V87.7889H37.5851V79.4591Z" fill="url(#paint4_linear_2413_156783)"></path>
                                    <path d="M79.2338 100.978H78.8867V111.39H79.2338V100.978Z" fill="url(#paint5_linear_2413_156783)"></path>
                                    <path d="M58.4096 83.6244H58.0625V93.3424H58.4096V83.6244Z" fill="url(#paint6_linear_2413_156783)"></path>
                                    <path d="M94.505 87.0953H94.158V95.4251H94.505V87.0953Z" fill="url(#paint7_linear_2413_156783)"></path>
                                    <path d="M118.8 72.5184H118.453V80.8481H118.8V72.5184Z" fill="url(#paint8_linear_2413_156783)"></path>
                                    <path d="M141.013 70.4358H140.666V78.7655H141.013V70.4358Z" fill="url(#paint9_linear_2413_156783)"></path>
                                    <path d="M116.718 91.6288H116.371V99.9585H116.718V91.6288Z" fill="url(#paint10_linear_2413_156783)"></path>
                                    <path opacity="0.8" d="M156.106 46.859L13.0769 46.8164V73.0128C12.9381 73.3599 12.9518 74.2282 13.1315 74.6474C13.3397 75.1333 13.6808 75.4349 14.1667 75.5737C14.8608 75.9902 81.0385 114.442 81.7327 114.859C83.468 115.761 85.6199 115.761 87.3553 114.859C88.0494 114.442 154.063 76.0447 154.757 75.6282C155.043 75.5326 155.308 75.4045 155.52 75.1923C155.833 74.8791 156.065 74.4316 156.106 74.1026C156.009 67.5641 156.106 55.5583 156.106 46.859Z" fill="url(#paint11_linear_2413_156783)"></path>
                                </g>
                                <g class="svg-illustration-top">
                            
                                    <path d="M161.282 44.6793H8.71802C8.71802 44.6793 8.71802 47.0092 8.71802 48.0494C8.78736 48.8123 9.2728 49.5057 9.96627 49.7831C10.7291 50.1992 81.2553 91.3222 82.0181 91.7383C83.8905 92.7091 86.1096 92.7091 87.982 91.7383C88.7448 91.3222 159.271 50.1992 160.034 49.7831C160.727 49.4364 161.213 48.8123 161.282 48.0494C161.282 47.4036 161.282 44.6793 161.282 44.6793Z" fill="url(#paint12_linear_2413_156783)"></path>
                                    <path d="M85.0001 0.269257C83.9599 0.269257 82.9197 0.477299 82.0181 0.96273C81.2553 1.44816 10.7291 42.5711 9.96627 42.9872C9.2728 43.3339 8.71802 44.1346 8.71802 44.7209C8.78736 45.4837 9.2728 46.1772 9.96627 46.4546C10.7291 46.8707 81.2553 87.9936 82.0181 88.4097C83.8905 89.3806 86.1096 89.3806 87.982 88.4097C88.7448 87.9936 159.271 46.8707 160.034 46.4546C160.727 46.1078 161.213 45.4837 161.282 44.7209C161.282 44.1346 160.727 43.2646 160.034 42.9872C159.271 42.5018 88.7448 1.44816 87.982 1.03208C87.0805 0.477299 86.0403 0.269257 85.0001 0.269257Z" fill="url(#paint13_linear_2413_156783)"></path>
                                    <path opacity="0.7" fill-rule="evenodd" clip-rule="evenodd" d="M115.137 61.1987L142.044 45.2488C142.529 44.9714 142.46 44.486 141.975 44.2086L115.276 28.5361C114.79 28.2587 114.166 28.1893 113.611 28.4667L86.7047 44.4166C86.2886 44.6246 86.358 45.1101 86.8434 45.3875L113.473 61.1293C113.958 61.4067 114.582 61.476 115.137 61.1987ZM84.0695 43.4457C84.555 43.7231 85.1791 43.7925 85.7339 43.5151L112.641 27.5652C113.057 27.3572 112.987 26.8717 112.502 26.5943L85.8726 10.8525C85.3871 10.5751 84.763 10.5058 84.2082 10.7832L57.3015 26.733C56.8854 26.9411 56.9547 27.4265 57.4402 27.7039L84.0695 43.4457ZM56.3306 61.1987L83.2374 45.2488C83.6535 44.9714 83.5841 44.486 83.0987 44.2086L56.4693 28.4667C55.9839 28.1893 55.3597 28.12 54.805 28.3974L27.8982 44.3473C27.4821 44.5553 27.5515 45.0407 28.0369 45.3181L41.5357 53.333L43.488 52.2227L43.4904 52.224C43.4969 52.22 43.5037 52.216 43.5105 52.212C43.8564 52.0123 44.417 52.012 44.7627 52.2112C45.1084 52.4104 45.1083 52.7338 44.7625 52.9334C44.752 52.9395 44.7412 52.9454 44.7303 52.9511L42.7701 54.066L54.6663 61.1293C55.1517 61.4067 55.7758 61.476 56.3306 61.1987Z" fill="#1D2540"></path>
                                    <path d="M59.2432 26.7332V23.0578H110.768V26.7332C110.838 27.0106 110.699 27.3573 110.491 27.496L85.7338 41.9896C85.2484 42.1976 84.6243 42.1976 84.2082 41.9202L59.6592 27.6347C59.3125 27.4267 59.1738 27.0799 59.2432 26.7332Z" fill="url(#paint14_linear_2413_156783)"></path>
                                    <path d="M60.5683 22.3971C60.5683 22.3971 60.2682 19.7234 62.8539 20.9533" stroke="white" stroke-width="0.5" stroke-linecap="round"></path>
                                    <path d="M62.1771 21.4591C62.1771 21.4591 61.8711 18.7826 64.4675 20.0177" stroke="white" stroke-width="0.5" stroke-linecap="round"></path>
                                    <path d="M63.7854 20.5172C63.7854 20.5172 63.4852 17.8435 66.0709 19.0734" stroke="white" stroke-width="0.5" stroke-linecap="round"></path>
                                    <path d="M65.392 19.5789C65.392 19.5789 65.0919 16.9052 67.6776 18.1351" stroke="white" stroke-width="0.5" stroke-linecap="round"></path>
                                    <path d="M66.9985 18.6401C66.9985 18.6401 66.6983 15.9665 69.2841 17.1964" stroke="white" stroke-width="0.5" stroke-linecap="round"></path>
                                    <path d="M68.6057 17.7009C68.6057 17.7009 68.3055 15.0272 70.8912 16.2571" stroke="white" stroke-width="0.5" stroke-linecap="round"></path>
                                    <path d="M70.2126 16.7621C70.2126 16.7621 69.9124 14.0884 72.4982 15.3183" stroke="white" stroke-width="0.5" stroke-linecap="round"></path>
                                    <path d="M71.8188 15.8238C71.8188 15.8238 71.5186 13.1501 74.1044 14.38" stroke="white" stroke-width="0.5" stroke-linecap="round"></path>
                                    <path d="M73.4257 14.8846C73.4257 14.8846 73.1256 12.2109 75.7113 13.4408" stroke="white" stroke-width="0.5" stroke-linecap="round"></path>
                                    <path d="M75.0322 13.9458C75.0322 13.9458 74.732 11.2721 77.3178 12.502" stroke="white" stroke-width="0.5" stroke-linecap="round"></path>
                                    <path d="M76.6386 13.007C76.6386 13.007 76.3385 10.3334 78.9242 11.5633" stroke="white" stroke-width="0.5" stroke-linecap="round"></path>
                                    <path d="M78.2453 12.0678C78.2453 12.0678 77.9452 9.39411 80.5309 10.624" stroke="white" stroke-width="0.5" stroke-linecap="round"></path>
                                    <path d="M79.852 11.129C79.852 11.129 79.5518 8.45536 82.1376 9.68526" stroke="white" stroke-width="0.5" stroke-linecap="round"></path>
                                    <path d="M109.556 22.3971C109.556 22.3971 109.856 19.7234 107.27 20.9533" stroke="white" stroke-width="0.5" stroke-linecap="round"></path>
                                    <path d="M107.947 21.4591C107.947 21.4591 108.253 18.7826 105.657 20.0177" stroke="white" stroke-width="0.5" stroke-linecap="round"></path>
                                    <path d="M106.339 20.5177C106.339 20.5177 106.639 17.844 104.053 19.0739" stroke="white" stroke-width="0.5" stroke-linecap="round"></path>
                                    <path d="M104.732 19.5784C104.732 19.5784 105.032 16.9047 102.447 18.1346" stroke="white" stroke-width="0.5" stroke-linecap="round"></path>
                                    <path d="M103.126 18.6401C103.126 18.6401 103.426 15.9665 100.84 17.1964" stroke="white" stroke-width="0.5" stroke-linecap="round"></path>
                                    <path d="M101.519 17.7013C101.519 17.7013 101.819 15.0277 99.2333 16.2576" stroke="white" stroke-width="0.5" stroke-linecap="round"></path>
                                    <path d="M99.9117 16.7626C99.9117 16.7626 100.212 14.0889 97.6261 15.3188" stroke="white" stroke-width="0.5" stroke-linecap="round"></path>
                                    <path d="M98.3057 15.8233C98.3057 15.8233 98.6059 13.1497 96.0201 14.3796" stroke="white" stroke-width="0.5" stroke-linecap="round"></path>
                                    <path d="M96.6985 14.8846C96.6985 14.8846 96.9987 12.2109 94.413 13.4408" stroke="white" stroke-width="0.5" stroke-linecap="round"></path>
                                    <path d="M95.0921 13.9458C95.0921 13.9458 95.3923 11.2721 92.8065 12.502" stroke="white" stroke-width="0.5" stroke-linecap="round"></path>
                                    <path d="M93.4856 13.0065C93.4856 13.0065 93.7858 10.3329 91.2001 11.5628" stroke="white" stroke-width="0.5" stroke-linecap="round"></path>
                                    <path d="M91.8792 12.0678C91.8792 12.0678 92.1794 9.39411 89.5937 10.624" stroke="white" stroke-width="0.5" stroke-linecap="round"></path>
                                    <path d="M90.2723 11.129C90.2723 11.129 90.5724 8.45535 87.9867 9.68525" stroke="white" stroke-width="0.5" stroke-linecap="round"></path>
                                    <path d="M90.2007 36.8164C90.2007 36.8164 91.8736 37.5375 91.9122 39.7052" stroke="white" stroke-width="0.5" stroke-linecap="round"></path>
                                    <path d="M88.5352 37.7893C88.5352 37.7893 90.2081 38.5103 90.2467 40.6781" stroke="white" stroke-width="0.5" stroke-linecap="round"></path>
                                    <path d="M91.866 35.8427C91.866 35.8427 93.5389 36.5637 93.5775 38.7315" stroke="white" stroke-width="0.5" stroke-linecap="round"></path>
                                    <path d="M93.5312 34.8694C93.5312 34.8694 95.2042 35.5904 95.2428 37.7582" stroke="white" stroke-width="0.5" stroke-linecap="round"></path>
                                    <path d="M95.1968 33.8965C95.1968 33.8965 96.8697 34.6176 96.9083 36.7853" stroke="white" stroke-width="0.5" stroke-linecap="round"></path>
                                    <path d="M96.8623 32.9232C96.8623 32.9232 98.5352 33.6443 98.5738 35.812" stroke="white" stroke-width="0.5" stroke-linecap="round"></path>
                                    <path d="M98.5273 31.9504C98.5273 31.9504 100.2 32.6715 100.239 34.8392" stroke="white" stroke-width="0.5" stroke-linecap="round"></path>
                                    <path d="M100.193 30.9771C100.193 30.9771 101.866 31.6982 101.905 33.8659" stroke="white" stroke-width="0.5" stroke-linecap="round"></path>
                                    <path d="M101.858 30.0038C101.858 30.0038 103.531 30.7249 103.57 32.8926" stroke="white" stroke-width="0.5" stroke-linecap="round"></path>
                                    <path d="M103.523 29.0309C103.523 29.0309 105.196 29.752 105.235 31.9197" stroke="white" stroke-width="0.5" stroke-linecap="round"></path>
                                    <path d="M105.189 28.0572C105.189 28.0572 106.862 28.7782 106.9 30.946" stroke="white" stroke-width="0.5" stroke-linecap="round"></path>
                                    <path d="M106.854 27.0844C106.854 27.0844 108.527 27.8054 108.566 29.9732" stroke="white" stroke-width="0.5" stroke-linecap="round"></path>
                                    <path d="M108.52 26.1111C108.52 26.1111 110.192 26.8321 110.231 28.9999" stroke="white" stroke-width="0.5" stroke-linecap="round"></path>
                                    <path d="M80.3611 36.8169C80.3611 36.8169 78.6881 37.538 78.6495 39.7057" stroke="white" stroke-width="0.5" stroke-linecap="round"></path>
                                    <path d="M82.0266 37.7893C82.0266 37.7893 80.3537 38.5103 80.3151 40.6781" stroke="white" stroke-width="0.5" stroke-linecap="round"></path>
                                    <path d="M78.696 35.8427C78.696 35.8427 77.0231 36.5638 76.9845 38.7315" stroke="white" stroke-width="0.5" stroke-linecap="round"></path>
                                    <path d="M77.0308 34.8703C77.0308 34.8703 75.3578 35.5914 75.3192 37.7591" stroke="white" stroke-width="0.5" stroke-linecap="round"></path>
                                    <path d="M75.3652 33.8965C75.3652 33.8965 73.6923 34.6176 73.6537 36.7853" stroke="white" stroke-width="0.5" stroke-linecap="round"></path>
                                    <path d="M73.6997 32.9237C73.6997 32.9237 72.0268 33.6448 71.9882 35.8125" stroke="white" stroke-width="0.5" stroke-linecap="round"></path>
                                    <path d="M72.0344 31.9509C72.0344 31.9509 70.3615 32.672 70.3229 34.8397" stroke="white" stroke-width="0.5" stroke-linecap="round"></path>
                                    <path d="M70.3689 30.9771C70.3689 30.9771 68.6959 31.6982 68.6574 33.8659" stroke="white" stroke-width="0.5" stroke-linecap="round"></path>
                                    <path d="M68.7039 30.0043C68.7039 30.0043 67.0309 30.7253 66.9923 32.8931" stroke="white" stroke-width="0.5" stroke-linecap="round"></path>
                                    <path d="M67.0386 29.0305C67.0386 29.0305 65.3656 29.7516 65.327 31.9193" stroke="white" stroke-width="0.5" stroke-linecap="round"></path>
                                    <path d="M65.3733 28.0577C65.3733 28.0577 63.7003 28.7788 63.6618 30.9465" stroke="white" stroke-width="0.5" stroke-linecap="round"></path>
                                    <path d="M63.7078 27.0848C63.7078 27.0848 62.0348 27.8059 61.9962 29.9736" stroke="white" stroke-width="0.5" stroke-linecap="round"></path>
                                    <path d="M62.0422 26.1111C62.0422 26.1111 60.3693 26.8321 60.3307 28.9999" stroke="white" stroke-width="0.5" stroke-linecap="round"></path>
                                    <path d="M88.7853 44.1395V40.4641H140.38V44.1395C140.449 44.4168 140.31 44.7636 140.102 44.9023L115.276 59.3265C114.79 59.5346 114.166 59.5346 113.681 59.2572L89.132 45.041C88.8546 44.8329 88.7159 44.4862 88.7853 44.1395Z" fill="url(#paint15_linear_2413_156783)"></path>
                                    <path fill-rule="evenodd" clip-rule="evenodd" d="M29.8399 40.395V44.4171C29.7706 44.7639 29.9093 45.1106 30.1867 45.3186L41.8959 52.1325L42.7509 51.6388L42.7549 51.6412C42.7662 51.6343 42.7776 51.6274 42.7893 51.6207C43.3774 51.2812 44.3307 51.2805 44.9187 51.6193C45.5066 51.9581 45.5064 52.508 44.9183 52.8475C44.9004 52.8579 44.8821 52.8679 44.8636 52.8776L44.0167 53.3666L54.7356 59.6042C55.1517 59.8816 55.7758 59.8816 56.2613 59.6735L81.0876 45.2493C81.2957 45.1106 81.4343 44.7639 81.365 44.4865V40.4643L29.8399 40.395Z" fill="url(#paint16_linear_2413_156783)"></path>
                                    <path fill-rule="evenodd" clip-rule="evenodd" d="M84.2777 7.80152L59.5207 22.2951C59.1046 22.5725 59.174 22.9192 59.59 23.1966L84.2777 37.5515C84.6938 37.8289 85.3179 37.8289 85.8033 37.6209L110.56 23.1273C110.907 22.9192 110.907 22.5032 110.422 22.2258L85.8727 7.87087C85.3872 7.59348 84.7631 7.59348 84.2777 7.80152ZM113.681 25.4851L88.924 39.9787C88.5079 40.1867 88.5772 40.6028 89.0626 40.8802L113.612 55.2351C114.028 55.5125 114.652 55.5125 115.137 55.3044L139.964 40.8109C140.31 40.6028 140.31 40.1867 139.825 39.9093L115.276 25.5544C114.79 25.2771 114.166 25.277 113.681 25.4851ZM54.8051 25.4851L47.0488 30.0386L47.0584 30.0441C48.3504 30.7887 48.3501 31.9971 47.0576 32.7433C45.7751 33.4838 43.702 33.4908 42.4078 32.7633L30.1174 39.9787C29.7014 40.1867 29.7707 40.6028 30.1868 40.8802L42.2225 47.9181L44.1114 46.8275L44.1155 46.8298C44.1267 46.8229 44.1381 46.8161 44.1498 46.8094C44.7379 46.4698 45.6913 46.4692 46.2792 46.808C46.8671 47.1468 46.867 47.6967 46.2788 48.0362C46.2609 48.0465 46.2427 48.0566 46.2241 48.0663L44.3381 49.1552L54.7357 55.2351C55.1518 55.5125 55.7759 55.5125 56.2614 55.3044L69.1581 47.7753C68.687 47.0893 68.9329 46.2771 69.8955 45.7213C70.8489 45.1709 72.2392 45.0257 73.4216 45.2863L81.0877 40.8109C81.4344 40.6028 81.4344 40.1867 80.949 39.9093L56.4001 25.5544C55.9146 25.2771 55.2905 25.277 54.8051 25.4851Z" fill="url(#paint17_linear_2413_156783)"></path>
                                    <path fill-rule="evenodd" clip-rule="evenodd" d="M113.635 29.1492C114.264 28.8175 115.017 28.8175 115.646 29.1492C116.206 29.4809 116.206 30.0407 115.646 30.3932C115.017 30.7249 114.264 30.7249 113.635 30.3932C113.075 30.0476 113.075 29.5086 113.635 29.1492Z" fill="white"></path>
                                    <path fill-rule="evenodd" clip-rule="evenodd" d="M113.635 49.6994C114.264 49.3677 115.017 49.3677 115.646 49.6994C116.206 50.0311 116.206 50.5909 115.646 50.9434C115.017 51.2751 114.264 51.2751 113.635 50.9434C113.075 50.5978 113.075 50.0588 113.635 49.6994Z" fill="white"></path>
                                    <path fill-rule="evenodd" clip-rule="evenodd" d="M94.8259 39.3562C95.4548 39.0245 96.2081 39.0245 96.837 39.3562C97.3968 39.6879 97.3968 40.2477 96.837 40.6002C96.2081 40.9319 95.4548 40.9319 94.8259 40.6002C94.2661 40.2546 94.2661 39.7156 94.8259 39.3562Z" fill="white"></path>
                                    <path fill-rule="evenodd" clip-rule="evenodd" d="M132.026 39.3562C132.654 39.0245 133.408 39.0245 134.037 39.3562C134.596 39.6879 134.596 40.2477 134.037 40.6002C133.408 40.9319 132.654 40.9319 132.026 40.6002C131.466 40.2546 131.466 39.7156 132.026 39.3562Z" fill="white"></path>
                                    <path fill-rule="evenodd" clip-rule="evenodd" d="M104.143 23.9743C103.936 23.8698 103.936 23.701 104.143 23.597C104.261 23.5454 104.389 23.5187 104.518 23.5187C104.648 23.5187 104.775 23.5454 104.894 23.597C105.101 23.7013 105.101 23.8703 104.894 23.9743C104.775 24.0258 104.648 24.0524 104.518 24.0524C104.389 24.0524 104.261 24.0258 104.143 23.9743ZM102.817 25.5664C102.61 25.4636 102.61 25.2967 102.817 25.1939C102.936 25.143 103.064 25.1168 103.193 25.1168C103.322 25.1168 103.449 25.143 103.568 25.1939C103.776 25.2967 103.776 25.4636 103.568 25.5662C103.449 25.6171 103.322 25.6433 103.193 25.6434C103.064 25.6434 102.936 25.6172 102.817 25.5664ZM102.817 24.7697C102.61 24.6666 102.61 24.4997 102.817 24.3971C102.936 24.3461 103.063 24.3199 103.193 24.3199C103.322 24.3199 103.449 24.3461 103.568 24.3971C103.776 24.5 103.776 24.6668 103.568 24.7694C103.449 24.8201 103.322 24.8462 103.193 24.8462C103.063 24.8462 102.936 24.82 102.817 24.7692V24.7697ZM101.486 26.3656C101.278 26.2613 101.278 26.0925 101.486 25.9882C101.604 25.9367 101.732 25.9102 101.861 25.9102C101.99 25.9102 102.118 25.9367 102.236 25.9882C102.444 26.0925 102.444 26.2615 102.236 26.3654C102.118 26.4169 101.99 26.4434 101.861 26.4434C101.732 26.4434 101.604 26.4167 101.486 26.3651V26.3656ZM101.486 25.5688C101.278 25.4648 101.278 25.2958 101.486 25.1917C101.604 25.1402 101.732 25.1137 101.861 25.1137C101.99 25.1137 102.118 25.1402 102.236 25.1917C102.444 25.296 102.444 25.4648 102.236 25.5688C102.118 25.6201 101.99 25.6465 101.861 25.6463C101.732 25.6461 101.604 25.6193 101.486 25.5676V25.5688ZM100.16 27.1609C99.9525 27.0581 99.9525 26.8912 100.16 26.7886C100.278 26.7377 100.406 26.7115 100.535 26.7115C100.664 26.7115 100.792 26.7377 100.911 26.7886C101.118 26.8915 101.118 27.0583 100.911 27.1609C100.792 27.2116 100.664 27.2377 100.535 27.2374C100.406 27.2372 100.278 27.2108 100.16 27.1597V27.1609ZM100.16 26.3641C99.9525 26.2613 99.9525 26.0945 100.16 25.9918C100.278 25.9409 100.406 25.9147 100.535 25.9147C100.664 25.9147 100.792 25.9409 100.911 25.9918C101.118 26.0945 101.118 26.2615 100.911 26.3641C100.792 26.4148 100.664 26.4408 100.535 26.4405C100.406 26.4402 100.278 26.4137 100.16 26.3625V26.3641ZM98.8286 27.9603C98.6209 27.856 98.6209 27.687 98.8286 27.583C98.947 27.5315 99.0748 27.5049 99.204 27.5049C99.3332 27.5049 99.461 27.5315 99.5794 27.583C99.7868 27.6875 99.7868 27.8563 99.5794 27.9603C99.4609 28.0116 99.333 28.0379 99.2038 28.0376C99.0746 28.0373 98.9469 28.0104 98.8286 27.9586V27.9603ZM98.8286 27.1636C98.6209 27.0593 98.6209 26.8902 98.8286 26.7862C98.947 26.7346 99.0748 26.708 99.204 26.708C99.3332 26.708 99.461 26.7346 99.5794 26.7862C99.7868 26.8905 99.7868 27.0593 99.5794 27.1633C99.4608 27.2145 99.333 27.2408 99.2038 27.2404C99.0746 27.2401 98.9469 27.2132 98.8286 27.1614V27.1636ZM97.5025 28.7556C97.2954 28.6526 97.2954 28.486 97.5025 28.3831C97.6212 28.3322 97.7489 28.306 97.878 28.306C98.0071 28.306 98.1348 28.3322 98.2534 28.3831C98.4608 28.4862 98.4608 28.6528 98.2534 28.7559C98.1346 28.8063 98.0068 28.832 97.8777 28.8316C97.7487 28.8312 97.621 28.8046 97.5025 28.7535V28.7556ZM97.5025 27.9589C97.2954 27.8558 97.2954 27.6889 97.5025 27.5863C97.6212 27.5354 97.7489 27.5091 97.878 27.5091C98.0071 27.5091 98.1348 27.5354 98.2534 27.5863C98.4608 27.6892 98.4608 27.856 98.2534 27.9589C98.1346 28.0092 98.0068 28.0349 97.8777 28.0345C97.7487 28.034 97.621 28.0074 97.5025 27.9562V27.9589ZM96.171 29.5548C95.9638 29.4505 95.9638 29.2815 96.171 29.1775C96.2894 29.1259 96.4172 29.0994 96.5464 29.0994C96.6756 29.0994 96.8034 29.1259 96.9219 29.1775C97.1295 29.2818 97.1295 29.4505 96.9219 29.5546C96.8033 29.6058 96.6754 29.632 96.5462 29.6316C96.417 29.6312 96.2893 29.6041 96.171 29.5522V29.5548ZM96.171 28.7581C95.9638 28.6538 95.9638 28.485 96.171 28.3807C96.2895 28.3293 96.4173 28.3027 96.5464 28.3027C96.6756 28.3027 96.8034 28.3293 96.9219 28.3807C97.1295 28.4852 97.1295 28.654 96.9219 28.7583C96.8032 28.8092 96.6752 28.8352 96.546 28.8346C96.4169 28.834 96.2892 28.8068 96.171 28.7547V28.7581ZM94.8454 30.3516C94.638 30.2485 94.638 30.0819 94.8454 29.979C94.9641 29.9281 95.0918 29.9019 95.2209 29.9019C95.35 29.9019 95.4777 29.9281 95.5963 29.979C95.804 30.0819 95.804 30.2487 95.5963 30.3514C95.4774 30.4016 95.3495 30.4271 95.2205 30.4263C95.0914 30.4256 94.9638 30.3986 94.8454 30.347V30.3516ZM94.8454 29.5548C94.638 29.4517 94.638 29.2849 94.8454 29.1823C94.9641 29.1314 95.0918 29.1051 95.2209 29.1051C95.35 29.1051 95.4777 29.1314 95.5963 29.1823C95.804 29.2849 95.804 29.452 95.5963 29.5546C95.4774 29.6047 95.3495 29.6301 95.2204 29.6293C95.0913 29.6285 94.9637 29.6014 94.8454 29.5498V29.5548ZM93.5136 31.1505C93.3065 31.0462 93.3065 30.8775 93.5136 30.7734C93.6321 30.7219 93.7599 30.6953 93.8891 30.6953C94.0183 30.6953 94.1461 30.7219 94.2645 30.7734C94.4719 30.8777 94.4719 31.0467 94.2645 31.1505C94.1457 31.2014 94.0178 31.2271 93.8886 31.2263C93.7594 31.2254 93.6317 31.1979 93.5136 31.1455V31.1505ZM93.5136 30.3538C93.3065 30.2497 93.3065 30.0807 93.5136 29.9766C93.6321 29.925 93.7599 29.8984 93.8891 29.8984C94.0183 29.8984 94.1461 29.925 94.2645 29.9766C94.4719 30.0807 94.4719 30.2497 94.2645 30.354C94.1457 30.4046 94.0177 30.4302 93.8885 30.4292C93.7593 30.4282 93.6317 30.4006 93.5136 30.3482V30.3538ZM92.1879 31.9461C91.9805 31.8432 91.9805 31.6762 92.1879 31.5735C92.3065 31.5226 92.4342 31.4963 92.5633 31.4963C92.6924 31.4963 92.8202 31.5226 92.9388 31.5735C93.1462 31.6764 93.1462 31.843 92.9388 31.9458C92.8198 31.9958 92.6919 32.0211 92.5628 32.0202C92.4337 32.0193 92.3062 31.9922 92.1879 31.9405V31.9461ZM92.1879 31.1493C91.9805 31.0465 91.9805 30.8796 92.1879 30.777C92.3065 30.7261 92.4342 30.6999 92.5633 30.6999C92.6924 30.6999 92.8201 30.7261 92.9388 30.777C93.1462 30.8801 93.1462 31.0467 92.9388 31.1498C92.8197 31.1996 92.6917 31.2247 92.5626 31.2235C92.4335 31.2224 92.306 31.195 92.1879 31.143V31.1493ZM90.8566 32.7455C90.6489 32.6412 90.6489 32.4722 90.8566 32.3681C90.9751 32.3166 91.1029 32.29 91.2321 32.29C91.3613 32.29 91.4892 32.3166 91.6077 32.3681C91.8149 32.4724 91.8149 32.6412 91.6077 32.7455C91.4888 32.7961 91.3607 32.8216 91.2315 32.8205C91.1022 32.8194 90.9746 32.7918 90.8566 32.7392V32.7455ZM90.8566 31.9487C90.6489 31.8444 90.6489 31.6752 90.8566 31.5714C90.9751 31.5198 91.1029 31.4932 91.2321 31.4932C91.3613 31.4932 91.4892 31.5198 91.6077 31.5714C91.8149 31.6757 91.8149 31.8444 91.6077 31.9485C91.4887 31.999 91.3607 32.0245 91.2314 32.0234C91.1022 32.0223 90.9746 31.9946 90.8566 31.942V31.9487ZM89.5308 33.5408C89.3234 33.4377 89.3234 33.2711 89.5308 33.168C89.6495 33.1171 89.7772 33.0909 89.9064 33.0909C90.0355 33.0909 90.1632 33.1171 90.2819 33.168C90.4891 33.2711 90.4891 33.4377 90.2819 33.5403C90.1628 33.5903 90.0348 33.6155 89.9057 33.6144C89.7766 33.6133 89.649 33.586 89.5308 33.5341V33.5408ZM89.5308 32.7441C89.3234 32.6407 89.3234 32.4744 89.5308 32.3713C89.6495 32.3204 89.7772 32.2942 89.9064 32.2942C90.0355 32.2942 90.1632 32.3204 90.2819 32.3713C90.4891 32.4744 90.4891 32.6412 90.2819 32.7438C90.1628 32.7936 90.0348 32.8187 89.9056 32.8175C89.7765 32.8163 89.649 32.7888 89.5308 32.7368V32.7441ZM104.894 24.4019C105.101 24.5062 105.101 24.6752 104.894 24.7791C104.775 24.8307 104.648 24.8573 104.518 24.8573C104.389 24.8573 104.261 24.8307 104.143 24.7791C103.936 24.6748 103.936 24.5057 104.143 24.4017C104.261 24.3491 104.389 24.3213 104.518 24.3201C104.647 24.3189 104.775 24.3443 104.894 24.3947V24.4019Z" fill="#292E47" fill-opacity="0.5"></path>
                                    <path d="M33.7665 43.0099L33 42.55V46.914L33.7665 47.3739V43.0099Z" fill="#1D2540" fill-opacity="0.5"></path>
                                    <path d="M35.0207 43.7326L34.2542 43.2726V47.6367L35.0207 48.0966V43.7326Z" fill="#1D2540" fill-opacity="0.5"></path>
                                    <path d="M35.5076 43.9953L36.2741 44.4552V48.8193L35.5076 48.3593V43.9953Z" fill="#1D2540" fill-opacity="0.5"></path>
                                    <path d="M37.5116 45.1668L36.7451 44.7069V49.0709L37.5116 49.5308V45.1668Z" fill="#1D2540" fill-opacity="0.5"></path>
                                    <path d="M37.9712 45.4407L38.7377 45.9006V50.2646L37.9712 49.8047V45.4407Z" fill="#1D2540" fill-opacity="0.5"></path>
                                    <path d="M40.0138 46.6401L39.2473 46.1802V50.5442L40.0138 51.0041V46.6401Z" fill="#1D2540" fill-opacity="0.5"></path>
                                    <path d="M40.4954 46.914L41.2619 47.3739V51.7379L40.4954 51.278V46.914Z" fill="#1D2540" fill-opacity="0.5"></path>
                                    <path d="M46.299 50.3191L45.5325 49.8592V54.2232L46.299 54.6832V50.3191Z" fill="#1D2540" fill-opacity="0.5"></path>
                                    <path d="M46.7864 50.5877L47.5529 51.0476V55.4116L46.7864 54.9517V50.5877Z" fill="#1D2540" fill-opacity="0.5"></path>
                                    <path d="M48.7849 51.7704L48.0403 51.3214V55.6855L48.774 56.1125L48.7849 51.7704Z" fill="#1D2540" fill-opacity="0.5"></path>
                                    <path d="M49.2776 52.0335L50.0222 52.4824L50.0113 56.8246L49.2776 56.3975V52.0335Z" fill="#1D2540" fill-opacity="0.5"></path>
                                    <path d="M51.2649 53.2215L50.5203 52.7726V57.1366L51.2539 57.5637L51.2649 53.2215Z" fill="#1D2540" fill-opacity="0.5"></path>
                                    <path d="M51.7798 53.5059L52.5244 53.9548L52.5135 58.2969L51.7798 57.8699V53.5059Z" fill="#1D2540" fill-opacity="0.5"></path>
                                    <path d="M53.762 54.6775L53.0173 54.2285V58.5925L53.751 59.0196L53.762 54.6775Z" fill="#1D2540" fill-opacity="0.5"></path>
                                    <path fill-rule="evenodd" clip-rule="evenodd" d="M33.8826 43.0411L33.1375 42.6054L36.2673 40.8203L37.0128 41.2558L33.8826 43.0411ZM35.1243 43.7673L34.3793 43.3316L37.5097 41.5461L38.255 41.9816L35.1243 43.7673ZM36.3662 44.4934L35.6211 44.0577L38.7519 42.272L39.4974 42.7075L36.3662 44.4934ZM37.608 45.2195L36.8629 44.7839L39.9943 42.9978L40.7396 43.4333L37.608 45.2195ZM38.8498 45.9457L38.1047 45.51L41.2365 43.7237L41.982 44.1592L38.8498 45.9457ZM40.0916 46.6718L39.3465 46.2361L42.4789 44.4495L43.2242 44.8851L40.0916 46.6718ZM41.3334 47.398L40.5883 46.9623L43.7211 45.1754L44.4666 45.6109L41.3334 47.398ZM46.3006 50.3025L45.5555 49.8669L48.6903 48.0788L49.4358 48.5143L46.3006 50.3025ZM47.5424 51.0287L46.7973 50.593L49.9327 48.8047L50.678 49.2402L47.5424 51.0287ZM48.7842 51.7548L48.0391 51.3191L51.1749 49.5305L51.9204 49.9661L48.7842 51.7548ZM50.026 52.4809L49.2809 52.0453L52.4173 50.2564L53.1626 50.6919L50.026 52.4809ZM51.2678 53.2071L50.5228 52.7714L53.6595 50.9823L54.405 51.4178L51.2678 53.2071ZM52.5096 53.9332L51.7645 53.4975L54.9019 51.7081L55.6472 52.1436L52.5096 53.9332ZM53.7514 54.6594L53.0064 54.2237L56.1441 52.434L56.8896 52.8695L53.7514 54.6594Z" fill="#1D2540" fill-opacity="0.5"></path>
                                    <path d="M49.3541 38.2807C49.0409 38.4634 48.6533 38.4623 48.3412 38.2777L46.2569 37.0454C45.9293 36.8517 45.9296 36.3777 46.2574 36.1843L54.3559 31.4076C54.6671 31.224 55.0531 31.2226 55.3657 31.4039L57.5182 32.6525C57.8499 32.8449 57.8505 33.3237 57.5193 33.5169L49.3541 38.2807Z" fill="white"></path>
                                    <path d="M53.6562 40.8071C53.3425 40.9901 52.9542 40.9886 52.6418 40.8032L50.5608 39.568C50.2338 39.374 50.2345 38.9005 50.562 38.7074L58.657 33.9344C58.9682 33.751 59.3542 33.7496 59.6667 33.9308L61.8193 35.1795C62.151 35.3719 62.1516 35.8506 61.8204 36.0439L53.6562 40.8071Z" fill="white"></path>
                                    <path d="M58.0968 43.3824C57.7851 43.5647 57.3993 43.5649 57.0875 43.3828L54.9853 42.1552C54.6558 41.9628 54.6546 41.487 54.9831 41.2929L63.082 36.5084C63.3962 36.3228 63.7864 36.3231 64.1003 36.509L66.2243 37.7672C66.5522 37.9614 66.5509 38.4365 66.2219 38.6289L58.0968 43.3824Z" fill="white"></path>
                                    <path d="M62.4433 45.9317C62.1304 46.1149 61.7429 46.1144 61.4305 45.9305L59.3216 44.6887C58.9931 44.4953 58.9932 44.0202 59.3217 43.8269L67.4297 39.0561C67.7421 38.8723 68.1294 38.8719 68.4422 39.0551L70.5769 40.3051C70.9067 40.4983 70.9067 40.9749 70.5769 41.1681L62.4433 45.9317Z" fill="white"></path>
                                    <path fill-rule="evenodd" clip-rule="evenodd" d="M70.3037 53.421C78.5863 48.639 92.0125 48.6301 100.293 53.4012C108.572 58.1724 108.57 65.9167 100.287 70.6987C92.0049 75.4806 78.5784 75.4892 70.2987 70.7181C62.0189 65.947 62.0212 58.2027 70.3037 53.421Z" fill="#1D2540" fill-opacity="0.7"></path>
                                    <path fill-rule="evenodd" clip-rule="evenodd" d="M71.0752 53.2246C78.9314 48.6887 91.6666 48.6803 99.5205 53.2058C107.374 57.7314 107.372 65.0771 99.5157 69.6129C91.6595 74.1488 78.924 74.157 71.0704 69.6314C63.2168 65.1059 63.219 57.7602 71.0752 53.2246Z" fill="url(#paint18_linear_2413_156783)"></path>
                                    <path fill-rule="evenodd" clip-rule="evenodd" d="M71.0752 49.6134C78.9314 45.0775 91.6667 45.0691 99.5205 49.5947C107.374 54.1202 107.372 61.4659 99.5157 66.0018C91.6595 70.5376 78.924 70.5458 71.0704 66.0202C63.2168 61.4947 63.219 54.149 71.0752 49.6134Z" fill="url(#paint19_linear_2413_156783)"></path>
                                    <path fill-rule="evenodd" clip-rule="evenodd" d="M78.0357 31.6893C77.8265 31.5858 77.8265 31.4175 78.0357 31.3135C78.1553 31.2623 78.284 31.2358 78.4142 31.2358C78.5443 31.2358 78.673 31.2623 78.7926 31.3135C79.0018 31.4175 79.0016 31.5853 78.7926 31.6896C78.673 31.7409 78.5443 31.7673 78.4141 31.7673C78.284 31.7672 78.1552 31.7407 78.0357 31.6893ZM76.6989 31.692C76.4899 31.5868 76.4899 31.4166 76.6989 31.3113C76.8183 31.2594 76.9471 31.2325 77.0774 31.2325C77.2076 31.2325 77.3364 31.2594 77.4558 31.3113C77.6648 31.4163 77.6648 31.5868 77.4558 31.692C77.3364 31.744 77.2076 31.7708 77.0774 31.7708C76.9471 31.7708 76.8183 31.744 76.6989 31.692ZM76.6989 30.8883C76.4899 30.7833 76.4899 30.6131 76.6989 30.5079C76.8183 30.4559 76.9471 30.4291 77.0774 30.4291C77.2076 30.4291 77.3364 30.4559 77.4558 30.5079C77.6648 30.6126 77.6648 30.7833 77.4558 30.8886C77.3363 30.9403 77.2075 30.9669 77.0773 30.9667C76.947 30.9666 76.8182 30.9396 76.6989 30.8876V30.8883ZM75.3565 30.8869C75.1475 30.7831 75.1475 30.6151 75.3565 30.5113C75.4761 30.4599 75.6048 30.4334 75.735 30.4334C75.8651 30.4334 75.9939 30.4599 76.1134 30.5113C76.3224 30.6148 76.3224 30.7833 76.1134 30.8871C75.9938 30.9382 75.865 30.9644 75.7349 30.9643C75.6047 30.9641 75.476 30.9375 75.3565 30.8861V30.8869ZM75.3565 30.0832C75.1475 29.9792 75.1475 29.8111 75.3565 29.7071C75.4761 29.6558 75.6048 29.6293 75.735 29.6293C75.8651 29.6293 75.9938 29.6558 76.1134 29.7071C76.3224 29.8106 76.3224 29.9789 76.1134 30.0827C75.9938 30.1339 75.865 30.1603 75.7349 30.1602C75.6048 30.1601 75.476 30.1336 75.3565 30.0822V30.0832ZM74.0197 30.0854C73.811 29.9806 73.811 29.8102 74.0197 29.7049C74.1391 29.653 74.2679 29.6261 74.3982 29.6261C74.5284 29.6261 74.6572 29.653 74.7766 29.7049C74.9856 29.8099 74.9856 29.9801 74.7766 30.0854C74.6572 30.1372 74.5283 30.1639 74.3981 30.1638C74.2678 30.1636 74.139 30.1366 74.0197 30.0844V30.0854ZM74.0197 29.2817C73.811 29.1765 73.811 29.006 74.0197 28.901C74.1391 28.849 74.2679 28.8221 74.3982 28.8221C74.5284 28.8221 74.6572 28.849 74.7766 28.901C74.9856 29.006 74.9856 29.1765 74.7766 29.2814C74.6571 29.3332 74.5283 29.3598 74.3981 29.3596C74.2678 29.3594 74.1391 29.3325 74.0197 29.2805V29.2817ZM72.6775 29.28C72.4686 29.1765 72.4686 29.0082 72.6775 28.9044C72.7971 28.8531 72.9259 28.8266 73.056 28.8266C73.1861 28.8266 73.3149 28.8531 73.4345 28.9044C73.6434 29.0082 73.6434 29.1762 73.4345 29.2802C73.3148 29.3313 73.186 29.3575 73.0558 29.3573C72.9257 29.357 72.797 29.3303 72.6775 29.2787V29.28ZM72.6775 28.4763C72.4686 28.3728 72.4686 28.2042 72.6775 28.1007C72.7971 28.0494 72.9259 28.0229 73.056 28.0229C73.1861 28.0229 73.3149 28.0494 73.4345 28.1007C73.6434 28.2042 73.6434 28.3725 73.4345 28.4765C73.3148 28.5276 73.1859 28.5537 73.0558 28.5534C72.9257 28.553 72.797 28.5262 72.6775 28.4746V28.4763ZM71.341 28.4787C71.1318 28.3738 71.1318 28.2035 71.341 28.0983C71.4604 28.0463 71.5892 28.0195 71.7194 28.0195C71.8497 28.0195 71.9785 28.0463 72.0979 28.0983C72.3069 28.2033 72.3069 28.3737 72.0979 28.479C71.9784 28.5307 71.8495 28.5572 71.7192 28.5569C71.589 28.5565 71.4602 28.5294 71.341 28.477V28.4787ZM71.341 27.675C71.1318 27.5698 71.1318 27.3996 71.341 27.2941C71.4604 27.2422 71.5892 27.2155 71.7194 27.2155C71.8497 27.2155 71.9785 27.2422 72.0979 27.2941C72.3069 27.3993 72.3069 27.5696 72.0979 27.6748C71.9784 27.7265 71.8495 27.753 71.7193 27.7527C71.589 27.7525 71.4603 27.7253 71.341 27.6731V27.675ZM69.9986 27.6736C69.7896 27.5696 69.7896 27.4015 69.9986 27.2975C70.1182 27.2462 70.247 27.2197 70.3772 27.2197C70.5073 27.2197 70.6361 27.2462 70.7558 27.2975C70.9647 27.4013 70.9647 27.5693 70.7558 27.6733C70.636 27.7243 70.5071 27.7504 70.377 27.7501C70.2468 27.7498 70.1181 27.7231 69.9986 27.6716V27.6736ZM69.9986 26.8699C69.7896 26.7661 69.7896 26.5978 69.9986 26.4941C70.1182 26.4427 70.247 26.4162 70.3772 26.4162C70.5073 26.4162 70.6362 26.4427 70.7558 26.4941C70.9647 26.5976 70.9647 26.7659 70.7558 26.8699C70.6359 26.9207 70.5071 26.9467 70.3769 26.9463C70.2468 26.9459 70.1181 26.919 69.9986 26.8674V26.8699ZM68.662 26.8723C68.4531 26.7673 68.4531 26.5971 68.662 26.4917C68.7814 26.4397 68.9103 26.4128 69.0405 26.4128C69.1707 26.4128 69.2996 26.4397 69.419 26.4917C69.6282 26.5966 69.6279 26.7671 69.419 26.8723C69.2994 26.9238 69.1704 26.9502 69.0402 26.9498C68.91 26.9493 68.7813 26.9221 68.662 26.8699V26.8723ZM68.662 26.0686C68.4531 25.9637 68.4531 25.7934 68.662 25.6882C68.7814 25.6362 68.9103 25.6093 69.0405 25.6093C69.1707 25.6093 69.2996 25.6362 69.419 25.6882C69.6282 25.7932 69.6279 25.9637 69.419 26.0689C69.2993 26.1202 69.1703 26.1464 69.0401 26.1458C68.9099 26.1452 68.7812 26.1179 68.662 26.0655V26.0686ZM67.3196 26.0672C67.1107 25.9637 67.1107 25.7954 67.3196 25.6916C67.4392 25.6403 67.568 25.6138 67.6981 25.6138C67.8282 25.6138 67.957 25.6403 68.0765 25.6916C68.2855 25.7951 68.2855 25.9634 68.0765 26.0672C67.9568 26.118 67.8279 26.1439 67.6978 26.1434C67.5676 26.1428 67.439 26.1158 67.3196 26.064V26.0672ZM67.3196 25.2635C67.1107 25.16 67.1107 24.9914 67.3196 24.8879C67.4392 24.8366 67.568 24.8101 67.6981 24.8101C67.8282 24.8101 67.957 24.8366 68.0765 24.8879C68.2855 24.9914 68.2855 25.1597 68.0765 25.2635C67.9567 25.3143 67.8278 25.3402 67.6977 25.3396C67.5676 25.3389 67.4389 25.3118 67.3196 25.2598V25.2635ZM65.9831 25.2659C65.7741 25.1612 65.7741 24.9907 65.9831 24.8855C66.1025 24.8336 66.2313 24.8068 66.3615 24.8068C66.4917 24.8068 66.6206 24.8336 66.74 24.8855C66.949 24.9907 66.949 25.1609 66.74 25.2662C66.6203 25.3176 66.4914 25.3437 66.3611 25.3431C66.2309 25.3424 66.1022 25.3149 65.9831 25.2623V25.2659ZM65.9831 24.4622C65.7741 24.3573 65.7741 24.187 65.9831 24.0818C66.1025 24.0298 66.2313 24.003 66.3615 24.003C66.4918 24.003 66.6206 24.0298 66.74 24.0818C66.949 24.1868 66.949 24.3573 66.74 24.4622C66.6203 24.5135 66.4913 24.5395 66.3611 24.5388C66.2309 24.5381 66.1022 24.5106 65.9831 24.4581V24.4622ZM64.6407 24.4608C64.4317 24.3573 64.4317 24.189 64.6407 24.0852C64.7603 24.0339 64.8891 24.0075 65.0193 24.0075C65.1494 24.0075 65.2782 24.0339 65.3978 24.0852C65.6068 24.189 65.6066 24.3573 65.3978 24.461C65.2779 24.5117 65.149 24.5374 65.0188 24.5366C64.8886 24.5359 64.76 24.5087 64.6407 24.4566V24.4608ZM64.6407 23.6571C64.4317 23.5536 64.4317 23.3853 64.6407 23.2815C64.7603 23.2301 64.8891 23.2036 65.0193 23.2036C65.1494 23.2036 65.2782 23.2301 65.3978 23.2815C65.6068 23.385 65.6066 23.5533 65.3978 23.6573C65.2779 23.7078 65.1489 23.7334 65.0188 23.7325C64.8886 23.7317 64.76 23.7044 64.6407 23.6524V23.6571ZM63.3044 23.6595C63.0952 23.5548 63.0952 23.3843 63.3044 23.2791C63.4238 23.2271 63.5526 23.2003 63.6828 23.2003C63.8131 23.2003 63.9419 23.2271 64.0613 23.2791C64.2702 23.3841 64.2702 23.5545 64.0613 23.6598C63.9416 23.7111 63.8126 23.7371 63.6823 23.7363C63.5521 23.7355 63.4234 23.7077 63.3044 23.6549V23.6595ZM63.3044 22.8558C63.0952 22.7509 63.0952 22.5804 63.3044 22.4752C63.4238 22.4231 63.5526 22.3963 63.6828 22.3963C63.8131 22.3963 63.9419 22.4231 64.0613 22.4752C64.2702 22.5801 64.2702 22.7504 64.0613 22.8558C63.9415 22.907 63.8125 22.933 63.6823 22.9321C63.5521 22.9313 63.4234 22.9035 63.3044 22.8507V22.8558ZM78.7936 32.1223C79.0028 32.2263 79.0025 32.3944 78.7936 32.4984C78.674 32.5497 78.5452 32.5762 78.4151 32.5762C78.285 32.5762 78.1562 32.5497 78.0367 32.4984C77.8275 32.3949 77.8275 32.2268 78.0367 32.1228C78.1557 32.0707 78.2841 32.0434 78.4141 32.0424C78.544 32.0415 78.6728 32.0669 78.7926 32.1172L78.7936 32.1223Z" fill="#292E47" fill-opacity="0.5"></path>
                                    <path d="M86.2537 28.4089C85.3147 28.9568 84.1527 28.9537 83.2165 28.4009L74.2486 23.1051C73.5933 22.7181 73.5933 21.7699 74.2486 21.3829L83.2165 16.0871C84.1527 15.5343 85.3147 15.5312 86.2537 16.0791L95.3401 21.3802C96.0016 21.7661 96.0016 22.7218 95.3401 23.1077L86.2537 28.4089Z" fill="white"></path>
                                    <path d="M85.0034 11.2489H82.697C82.4425 11.2489 82.3507 10.913 82.5699 10.7836L84.7001 9.52564C84.8874 9.41507 85.1198 9.41446 85.3076 9.52403L87.4655 10.783C87.6859 10.9116 87.5946 11.2489 87.3395 11.2489H85.0034Z" fill="#1D2540" fill-opacity="0.4"></path>
                                    <path d="M90.5465 60.831C92.0531 60.0092 92.0531 58.6397 90.6835 57.8179C90.2726 57.544 89.7248 57.4071 89.3139 57.4071C90.4096 56.5853 90.2726 55.3528 89.04 54.531C87.5334 53.7093 85.2051 53.7093 83.8355 54.531C83.6985 54.3941 83.5616 54.3941 83.4246 54.2571C82.192 53.5723 80.1376 53.5723 78.768 54.2571C77.2614 54.9419 77.2614 56.0375 78.3571 56.8593L85.479 60.9679C86.8486 61.6527 89.04 61.6527 90.5465 60.831Z" fill="white"></path>
                                    <path d="M138.145 44.4269C138.381 44.283 138.456 43.9754 138.312 43.7396C138.168 43.5039 137.86 43.4293 137.624 43.5731L138.145 44.4269ZM134.74 45.3329C134.504 45.4767 134.429 45.7844 134.573 46.0201C134.717 46.2559 135.025 46.3304 135.26 46.1866L134.74 45.3329ZM137.624 43.5731L134.74 45.3329L135.26 46.1866L138.145 44.4269L137.624 43.5731Z" fill="#1D2540" fill-opacity="0.5"></path>
                                </g>
                                <defs>
                                    <linearGradient id="paint0_linear_2413_156783" x1="85.0001" y1="82.0128" x2="85.0001" y2="169.546" gradientUnits="userSpaceOnUse">
                                        <stop stop-color="#13151E" stop-opacity="0"></stop>
                                        <stop offset="1" stop-color="#131532"></stop>
                                    </linearGradient>
                                    <linearGradient id="paint1_linear_2413_156783" x1="8.72607" y1="84.2317" x2="161.212" y2="84.2317" gradientUnits="userSpaceOnUse">
                                        <stop offset="0.48" stop-color="#D2D8E6"></stop>
                                        <stop offset="0.52" stop-color="#E0E4EF"></stop>
                                    </linearGradient>
                                    <linearGradient id="paint2_linear_2413_156783" x1="8.71802" y1="84.2317" x2="161.204" y2="84.2317" gradientUnits="userSpaceOnUse">
                                        <stop stop-color="#BBC1D4" stop-opacity="0"></stop>
                                        <stop offset="0.35" stop-color="#BBC1D4" stop-opacity="0.7"></stop>
                                        <stop offset="1" stop-color="#BBC1D4" stop-opacity="0"></stop>
                                    </linearGradient>
                                    <linearGradient id="paint3_linear_2413_156783" x1="26.3054" y1="58.6353" x2="26.3054" y2="66.9651" gradientUnits="userSpaceOnUse">
                                        <stop stop-color="#00BAFF"></stop>
                                        <stop offset="1" stop-color="#00BAFF" stop-opacity="0"></stop>
                                    </linearGradient>
                                    <linearGradient id="paint4_linear_2413_156783" x1="37.4116" y1="79.4591" x2="37.4116" y2="87.7889" gradientUnits="userSpaceOnUse">
                                        <stop stop-color="#01B2FD"></stop>
                                        <stop offset="1" stop-color="#00BAFF" stop-opacity="0"></stop>
                                    </linearGradient>
                                    <linearGradient id="paint5_linear_2413_156783" x1="79.0603" y1="100.978" x2="79.0603" y2="111.39" gradientUnits="userSpaceOnUse">
                                        <stop stop-color="#01B2FD"></stop>
                                        <stop offset="1" stop-color="#00BAFF" stop-opacity="0"></stop>
                                    </linearGradient>
                                    <linearGradient id="paint6_linear_2413_156783" x1="58.236" y1="83.6244" x2="58.236" y2="93.3424" gradientUnits="userSpaceOnUse">
                                        <stop offset="0.1" stop-color="#01B2FD"></stop>
                                        <stop offset="1" stop-color="#00BAFF" stop-opacity="0"></stop>
                                    </linearGradient>
                                    <linearGradient id="paint7_linear_2413_156783" x1="94.3315" y1="87.0953" x2="94.3315" y2="95.4251" gradientUnits="userSpaceOnUse">
                                        <stop offset="0.1" stop-color="#01B2FD"></stop>
                                        <stop offset="1" stop-color="#00BAFF" stop-opacity="0"></stop>
                                    </linearGradient>
                                    <linearGradient id="paint8_linear_2413_156783" x1="118.627" y1="72.5184" x2="118.627" y2="80.8481" gradientUnits="userSpaceOnUse">
                                        <stop offset="0.1" stop-color="#01B2FD"></stop>
                                        <stop offset="1" stop-color="#00BAFF" stop-opacity="0"></stop>
                                    </linearGradient>
                                    <linearGradient id="paint9_linear_2413_156783" x1="140.839" y1="70.4358" x2="140.839" y2="78.7655" gradientUnits="userSpaceOnUse">
                                        <stop stop-color="#01B2FD"></stop>
                                        <stop offset="1" stop-color="#00BAFF" stop-opacity="0"></stop>
                                    </linearGradient>
                                    <linearGradient id="paint10_linear_2413_156783" x1="116.544" y1="91.6288" x2="116.544" y2="99.9585" gradientUnits="userSpaceOnUse">
                                        <stop stop-color="#01B2FD"></stop>
                                        <stop offset="1" stop-color="#00BAFF" stop-opacity="0"></stop>
                                    </linearGradient>
                                    <linearGradient id="paint11_linear_2413_156783" x1="84.5683" y1="115.375" x2="84.5683" y2="46.7064" gradientUnits="userSpaceOnUse">
                                        <stop stop-color="#17BDFF"></stop>
                                        <stop offset="0.8" stop-color="#17BDFF" stop-opacity="0"></stop>
                                    </linearGradient>
                                    <linearGradient id="paint12_linear_2413_156783" x1="8.71802" y1="68.5728" x2="161.282" y2="68.5728" gradientUnits="userSpaceOnUse">
                                        <stop stop-color="#373F6E"></stop>
                                        <stop offset="1" stop-color="#5A6291"></stop>
                                    </linearGradient>
                                    <linearGradient id="paint13_linear_2413_156783" x1="8.71802" y1="44.6746" x2="161.282" y2="44.6746" gradientUnits="userSpaceOnUse">
                                        <stop offset="0.00513965" stop-color="#3F4B75"></stop>
                                        <stop offset="1" stop-color="#636F99"></stop>
                                    </linearGradient>
                                    <linearGradient id="paint14_linear_2413_156783" x1="59.2258" y1="32.5978" x2="110.786" y2="32.5978" gradientUnits="userSpaceOnUse">
                                        <stop stop-color="#373F6E"></stop>
                                        <stop offset="0.46" stop-color="#373F6E"></stop>
                                        <stop offset="1" stop-color="#5A6291"></stop>
                                    </linearGradient>
                                    <linearGradient id="paint15_linear_2413_156783" x1="88.7676" y1="49.9694" x2="140.398" y2="49.9694" gradientUnits="userSpaceOnUse">
                                        <stop stop-color="#373F6E"></stop>
                                        <stop offset="1" stop-color="#5A6291"></stop>
                                    </linearGradient>
                                    <linearGradient id="paint16_linear_2413_156783" x1="29.8223" y1="50.1084" x2="81.383" y2="50.1084" gradientUnits="userSpaceOnUse">
                                        <stop stop-color="#373F6E"></stop>
                                        <stop offset="1" stop-color="#5A6291"></stop>
                                    </linearGradient>
                                    <linearGradient id="paint17_linear_2413_156783" x1="29.8379" y1="31.553" x2="140.208" y2="31.553" gradientUnits="userSpaceOnUse">
                                        <stop stop-color="#5B6791"></stop>
                                        <stop offset="1" stop-color="#69759F"></stop>
                                    </linearGradient>
                                    <linearGradient id="paint18_linear_2413_156783" x1="65.1816" y1="61.4187" x2="105.409" y2="61.4187" gradientUnits="userSpaceOnUse">
                                        <stop stop-color="#1D53DA"></stop>
                                        <stop offset="1" stop-color="#3F75FC"></stop>
                                    </linearGradient>
                                    <linearGradient id="paint19_linear_2413_156783" x1="65.1816" y1="57.8075" x2="105.345" y2="57.8075" gradientUnits="userSpaceOnUse">
                                        <stop stop-color="#0397F6"></stop>
                                        <stop offset="1" stop-color="#00BAFF"></stop>
                                    </linearGradient>
                                </defs>
                            </svg>